<?xml version="1.0" encoding="utf-8"?>
<!-- Generator: Adobe Illustrator 27.8.1, SVG Export Plug-In . SVG Version: 6.00 Build 0)  -->
<svg version="1.1" id="Layer_1" xmlns="http://www.w3.org/2000/svg" xmlns:xlink="http://www.w3.org/1999/xlink" x="0px" y="0px"
	 viewBox="0 0 4616.8 6204.6" style="enable-background:new 0 0 4616.8 6204.6;" xml:space="preserve">
<style type="text/css">
	.st0{font-family:'Calibri';}
	.st1{font-size:102.0417px;}
	.st2{fill:#FFFFFF;stroke:#000000;stroke-width:0.1358;stroke-miterlimit:1.3588;}
	.st3{font-size:17.1315px;}
</style>
<g>
	<text transform="matrix(0 -1 1 0 160.2944 227.4719)" class="st0 st1">72A6</text>
	<text transform="matrix(0 -1 1 0 692.9697 228.5783)" class="st0 st1">72A5</text>
	<text transform="matrix(0 -1 1 0 957.1061 228.5783)" class="st0 st1">72A4</text>
	<text transform="matrix(0 -1 1 0 1496.5826 228.5783)" class="st0 st1">72A3</text>
	<text transform="matrix(0 -1 1 0 1766.9152 228.5783)" class="st0 st1">72A2</text>
	<text transform="matrix(0 -1 1 0 2305.0024 228.5783)" class="st0 st1">72A1</text>
	<text transform="matrix(0 -1 1 0 692.9697 3384.8997)" class="st0 st1">72B5</text>
	<text transform="matrix(0 -1 1 0 957.1061 3384.8997)" class="st0 st1">72B4</text>
	<text transform="matrix(0 -1 1 0 1496.5826 3384.8997)" class="st0 st1">72B3</text>
	<text transform="matrix(0 -1 1 0 1766.9152 3384.8997)" class="st0 st1">72B2</text>
	<text transform="matrix(0 -1 1 0 2305.0024 3384.8997)" class="st0 st1">72B1</text>
	<text transform="matrix(0 -1 1 0 2877.6062 1771.4817)" class="st0 st1">71A7</text>
	<text transform="matrix(0 -1 1 0 3408.2815 1771.4817)" class="st0 st1">71A6</text>
	<text transform="matrix(0 -1 1 0 3672.4177 1771.4817)" class="st0 st1">71A5</text>
	<text transform="matrix(0 -1 1 0 4211.8945 1771.4817)" class="st0 st1">71A4</text>
	<text transform="matrix(0 -1 1 0 4482.2271 1771.4817)" class="st0 st1">71A3</text>
	<text transform="matrix(0 -1 1 0 2877.9109 3384.8997)" class="st0 st1">71B8</text>
	<text transform="matrix(0 -1 1 0 3417.3875 3384.8997)" class="st0 st1">71B7</text>
	<text transform="matrix(0 -1 1 0 3687.72 3384.8997)" class="st0 st1">71B6</text>
	<text transform="matrix(0 -1 1 0 4211.894 3384.8997)" class="st0 st1">71A1</text>
	<text transform="matrix(0 -1 1 0 4482.2275 3384.8997)" class="st0 st1">71A2</text>
	<text transform="matrix(0 -1 1 0 1496.5826 4572.5811)" class="st0 st1">71D6</text>
	<text transform="matrix(0 -1 1 0 1927.9474 4572.5811)" class="st0 st1">71D5</text>
	<text transform="matrix(0 -1 1 0 2469.9055 4572.5811)" class="st0 st1">71D4</text>
	<text transform="matrix(0 -1 1 0 2739.5256 4572.5811)" class="st0 st1">71D3</text>
	<text transform="matrix(0 -1 1 0 3268.7424 4572.5811)" class="st0 st1">71D2</text>
	<text transform="matrix(0 -1 1 0 3709.5361 4572.5811)" class="st0 st1">71D1</text>
	<text transform="matrix(0 -1 1 0 4246.7329 4572.5811)" class="st0 st1">71B5</text>
	<text transform="matrix(0 -1 1 0 4514.0786 4572.5811)" class="st0 st1">71B4</text>
	<text transform="matrix(0 -1 1 0 153.4932 6176.7822)" class="st0 st1">71C8</text>
	<text transform="matrix(0 -1 1 0 692.9697 6176.7822)" class="st0 st1">71C7</text>
	<text transform="matrix(0 -1 1 0 957.1061 6176.7822)" class="st0 st1">71C6</text>
	<text transform="matrix(0 -1 1 0 1496.5826 6186.3369)" class="st0 st1">71C5</text>
	<text transform="matrix(0 -1 1 0 1927.9474 6186.3369)" class="st0 st1">71C4</text>
	<text transform="matrix(0 -1 1 0 2469.9055 6186.3369)" class="st0 st1">71C3</text>
	<text transform="matrix(0 -1 1 0 2739.5256 6186.3369)" class="st0 st1">71C2</text>
	<text transform="matrix(0 -1 1 0 3268.7424 6186.3369)" class="st0 st1">71C1</text>
	<text transform="matrix(0 -1 1 0 3709.5361 6186.3369)" class="st0 st1">71B1</text>
	<text transform="matrix(0 -1 1 0 4246.7329 6186.3369)" class="st0 st1">71B2</text>
	<text transform="matrix(0 -1 1 0 4514.0786 6186.3369)" class="st0 st1">71B3</text>
</g>
<rect id="E1B_-_72A1.1" x="2268.9" y="237" class="st2" width="77" height="435.4"/>
<rect id="E1B_-_72A1.2" x="2191.9" y="237" class="st2" width="77" height="435.4"/>
<rect id="E1B_-_72A1.3" x="2268.9" y="709.6" class="st2" width="77" height="435.4"/>
<rect id="E1B_-_72A1.4" x="2191.9" y="709.6" class="st2" width="77" height="435.4"/>
<rect id="E1B_-_72A1.5" x="2268.9" y="1182.4" class="st2" width="77" height="435.4"/>
<rect id="E1B_-_72A1.6" x="2191.9" y="1182.4" class="st2" width="77" height="435.4"/>
<rect id="E1B_-_72A2.1" x="1732.9" y="237" class="st2" width="77" height="435.4"/>
<rect id="E1B_-_72A2.2" x="1655.9" y="237" class="st2" width="77" height="435.4"/>
<rect id="E1B_-_72A2.3" x="1732.9" y="709.6" class="st2" width="77" height="435.4"/>
<rect id="E1B_-_72A2.4" x="1655.9" y="709.6" class="st2" width="77" height="435.4"/>
<rect id="E1B_-_72A2.5" x="1732.9" y="1182.4" class="st2" width="77" height="435.4"/>
<rect id="E1B_-_72A2.6" x="1655.9" y="1182.4" class="st2" width="77" height="435.4"/>
<rect id="E1B_-_72A3.1" x="1462.6" y="237" class="st2" width="77" height="435.4"/>
<rect id="E1B_-_72A3.2" x="1385.6" y="237" class="st2" width="77" height="435.4"/>
<rect id="E1B_-_72A3.3" x="1462.6" y="709.6" class="st2" width="77" height="435.4"/>
<rect id="E1B_-_72A3.4" x="1385.6" y="709.6" class="st2" width="77" height="435.4"/>
<rect id="E1B_-_72A3.5" x="1462.6" y="1182.4" class="st2" width="77" height="435.4"/>
<rect id="E1B_-_72A3.6" x="1385.6" y="1182.4" class="st2" width="77" height="435.4"/>
<rect id="E1B_-_72A4.1" x="924.9" y="237" class="st2" width="77" height="435.4"/>
<rect id="E1B_-_72A4.2" x="847.9" y="237" class="st2" width="77" height="435.4"/>
<rect id="E1B_-_72A4.3" x="924.9" y="709.6" class="st2" width="77" height="435.4"/>
<rect id="E1B_-_72A4.4" x="847.9" y="709.6" class="st2" width="77" height="435.4"/>
<rect id="E1B_-_72A4.5" x="924.9" y="1182.4" class="st2" width="77" height="435.4"/>
<rect id="E1B_-_72A4.6" x="847.9" y="1182.4" class="st2" width="77" height="435.4"/>
<rect id="E1B_-_72A5.1" x="654.5" y="237" class="st2" width="77" height="435.4"/>
<rect id="E1B_-_72A5.2" x="577.5" y="237" class="st2" width="77" height="435.4"/>
<rect id="E1B_-_72A5.3" x="654.5" y="709.6" class="st2" width="77" height="435.4"/>
<rect id="E1B_-_72A5.4" x="577.5" y="709.6" class="st2" width="77" height="435.4"/>
<rect id="E1B_-_72A5.5" x="654.5" y="1182.4" class="st2" width="77" height="435.4"/>
<rect id="E1B_-_72A5.6" x="577.5" y="1182.4" class="st2" width="77" height="435.4"/>
<rect id="E1B_-_72A6.1" x="124.8" y="237" class="st2" width="77" height="435.4"/>
<rect id="E1B_-_72A6.2" x="47.8" y="237" class="st2" width="77" height="435.4"/>
<rect id="E1B_-_72A6.3" x="124.8" y="709.6" class="st2" width="77" height="435.4"/>
<rect id="E1B_-_72A6.4" x="47.8" y="709.6" class="st2" width="77" height="435.4"/>
<rect id="E1B_-_72A6.5" x="124.8" y="1182.4" class="st2" width="77" height="435.4"/>
<rect id="E1B_-_72A6.6" x="47.8" y="1182.4" class="st2" width="77" height="435.4"/>
<rect id="E1B_-_72B1.1" x="2191.9" y="2722.8" class="st2" width="77" height="435.4"/>
<rect id="E1B_-_72B1.2" x="2268.9" y="2722.8" class="st2" width="77" height="435.4"/>
<rect id="E1B_-_72B1.3" x="2191.9" y="2250.2" class="st2" width="77" height="435.4"/>
<rect id="E1B_-_72B1.4" x="2268.9" y="2250.2" class="st2" width="77" height="435.4"/>
<rect id="E1B_-_72B1.5" x="2191.9" y="1777.5" class="st2" width="77" height="435.4"/>
<rect id="E1B_-_72B1.6" x="2268.9" y="1777.5" class="st2" width="77" height="435.4"/>
<rect id="E1B_-_72B2.1" x="1655.9" y="2722.8" class="st2" width="77" height="435.4"/>
<rect id="E1B_-_72B2.2" x="1732.9" y="2722.8" class="st2" width="77" height="435.4"/>
<rect id="E1B_-_72B2.3" x="1655.9" y="2250.2" class="st2" width="77" height="435.4"/>
<rect id="E1B_-_72B2.4" x="1732.9" y="2250.2" class="st2" width="77" height="435.4"/>
<rect id="E1B_-_72B2.5" x="1655.9" y="1777.5" class="st2" width="77" height="435.4"/>
<rect id="E1B_-_72B2.6" x="1732.9" y="1777.5" class="st2" width="77" height="435.4"/>
<rect id="E1B_-_72B3.1" x="1385.6" y="2722.8" class="st2" width="77" height="435.4"/>
<rect id="E1B_-_72B3.2" x="1462.6" y="2722.8" class="st2" width="77" height="435.4"/>
<rect id="E1B_-_72B3.3" x="1385.6" y="2250.2" class="st2" width="77" height="435.4"/>
<rect id="E1B_-_72B3.4" x="1462.6" y="2250.2" class="st2" width="77" height="435.4"/>
<rect id="E1B_-_72B3.5" x="1385.6" y="1777.5" class="st2" width="77" height="435.4"/>
<rect id="E1B_-_72B3.6" x="1462.6" y="1777.5" class="st2" width="77" height="435.4"/>
<rect id="E1B_-_72B4.1" x="847.9" y="2722.8" class="st2" width="77" height="435.4"/>
<rect id="E1B_-_72B4.2" x="924.9" y="2722.8" class="st2" width="77" height="435.4"/>
<rect id="E1B_-_72B4.3" x="847.9" y="2250.2" class="st2" width="77" height="435.4"/>
<rect id="E1B_-_72B4.4" x="924.9" y="2250.2" class="st2" width="77" height="435.4"/>
<rect id="E1B_-_72B4.5" x="847.9" y="1777.5" class="st2" width="77" height="435.4"/>
<rect id="E1B_-_72B4.6" x="924.9" y="1777.5" class="st2" width="77" height="435.4"/>
<rect id="E1B_-_72B5.1" x="577.5" y="2722.8" class="st2" width="77" height="435.4"/>
<rect id="E1B_-_72B5.2" x="654.5" y="2722.8" class="st2" width="77" height="435.4"/>
<rect id="E1B_-_72B5.3" x="577.5" y="2250.2" class="st2" width="77" height="435.4"/>
<rect id="E1B_-_72B5.4" x="654.5" y="2250.2" class="st2" width="77" height="435.4"/>
<rect id="E1B_-_72B5.5" x="577.5" y="1777.5" class="st2" width="77" height="435.4"/>
<rect id="E1B_-_72B5.6" x="654.5" y="1777.5" class="st2" width="77" height="435.4"/>
<rect id="E1B_-_71A2.1" x="4373.6" y="2722.8" class="st2" width="77" height="435.4"/>
<rect id="E1B_-_71A2.2" x="4450.6" y="2722.8" class="st2" width="77" height="435.4"/>
<rect id="E1B_-_71A2.3" x="4373.6" y="2250.2" class="st2" width="77" height="435.4"/>
<rect id="E1B_-_71A3.3" x="4450.6" y="2250.2" class="st2" width="77" height="435.4"/>
<rect id="E1B_-_71A3.2" x="4450.6" y="1777.5" class="st2" width="77" height="435.4"/>
<rect id="E1B_-_71A3.1" x="4373.6" y="1777.5" class="st2" width="77" height="435.4"/>
<rect id="E1B_-_71A1.1" x="4103.2" y="2722.8" class="st2" width="77" height="435.4"/>
<rect id="E1B_-_71A1.2" x="4180.2" y="2722.8" class="st2" width="77" height="435.4"/>
<rect id="E1B_-_71A1.3" x="4103.2" y="2250.2" class="st2" width="77" height="435.4"/>
<rect id="E1B_-_71A4.3" x="4180.2" y="2250.2" class="st2" width="77" height="435.4"/>
<rect id="E1B_-_71A4.2" x="4180.2" y="1777.5" class="st2" width="77" height="435.4"/>
<rect id="E1B_-_71A4.1" x="4103.2" y="1777.5" class="st2" width="77" height="435.4"/>
<rect id="E1B_-_71B6.1" x="3571.5" y="2722.8" class="st2" width="77" height="435.4"/>
<rect id="E1B_-_71B6.2" x="3648.5" y="2722.8" class="st2" width="77" height="435.4"/>
<rect id="E1B_-_71B6.3" x="3571.5" y="2250.2" class="st2" width="77" height="435.4"/>
<rect id="E1B_-_71A5.3" x="3648.5" y="2250.2" class="st2" width="77" height="435.4"/>
<rect id="E1B_-_71A5.2" x="3648.5" y="1777.5" class="st2" width="77" height="435.4"/>
<rect id="E1B_-_71A5.1" x="3571.5" y="1777.5" class="st2" width="77" height="435.4"/>
<rect id="E1B_-_71B7.1" x="3301.1" y="2722.8" class="st2" width="77" height="435.4"/>
<rect id="E1B_-_71B7.2" x="3378.1" y="2722.8" class="st2" width="77" height="435.4"/>
<rect id="E1B_-_71B7.3" x="3301.1" y="2250.2" class="st2" width="77" height="435.4"/>
<rect id="E1B_-_71A6.3" x="3378.1" y="2250.2" class="st2" width="77" height="435.4"/>
<rect id="E1B_-_71A6.2" x="3378.1" y="1777.5" class="st2" width="77" height="435.4"/>
<rect id="E1B_-_71A6.1" x="3301.1" y="1777.5" class="st2" width="77" height="435.4"/>
<rect id="E1B_-_71B8.1" x="2763.9" y="2722.8" class="st2" width="77" height="435.4"/>
<rect id="E1B_-_71B8.2" x="2840.9" y="2722.8" class="st2" width="77" height="435.4"/>
<rect id="E1B_-_71B8.3" x="2763.9" y="2250.2" class="st2" width="77" height="435.4"/>
<rect id="E1B_-_71A7.3" x="2840.9" y="2250.2" class="st2" width="77" height="435.4"/>
<rect id="E1B_-_71A7.2" x="2840.9" y="1777.5" class="st2" width="77" height="435.4"/>
<rect id="E1B_-_71A7.1" x="2763.9" y="1777.5" class="st2" width="77" height="435.4"/>
<rect id="E1B_-_71C8.1" x="41.4" y="5525.4" class="st2" width="77" height="435.4"/>
<rect id="E1B_-_71C8.2" x="118.4" y="5525.4" class="st2" width="77" height="435.4"/>
<rect id="E1B_-_71C8.3" x="41.4" y="5052.8" class="st2" width="77" height="435.4"/>
<rect id="E1B_-_71C7.1" x="579" y="5525.4" class="st2" width="77" height="435.4"/>
<rect id="E1B_-_71C7.2" x="656" y="5525.4" class="st2" width="77" height="435.4"/>
<rect id="E1B_-_71C7.3" x="579" y="5052.8" class="st2" width="77" height="435.4"/>
<rect id="E1B_-_71C6.1" x="851.3" y="5525.4" class="st2" width="77" height="435.4"/>
<rect id="E1B_-_71C6.2" x="928.3" y="5525.4" class="st2" width="77" height="435.4"/>
<rect id="E1B_-_71C6.3" x="851.3" y="5052.8" class="st2" width="77" height="435.4"/>
<rect id="E1B_-_71C5.1" x="1382.8" y="5523.6" class="st2" width="77" height="435.4"/>
<rect id="E1B_-_71C5.2" x="1459.8" y="5523.6" class="st2" width="77" height="435.4"/>
<rect id="E1B_-_71C5.3" x="1382.8" y="5051" class="st2" width="77" height="435.4"/>
<rect id="E1B_-_71D6.3" x="1459.8" y="5051" class="st2" width="77" height="435.4"/>
<rect id="E1B_-_71D6.2" x="1459.8" y="4578.3" class="st2" width="77" height="435.4"/>
<rect id="E1B_-_71D6.1" x="1382.8" y="4578.3" class="st2" width="77" height="435.4"/>
<rect id="E1B_-_71C4.1" x="1819.7" y="5523.6" class="st2" width="77" height="435.4"/>
<rect id="E1B_-_71C4.2" x="1896.7" y="5523.6" class="st2" width="77" height="435.4"/>
<rect id="E1B_-_71C4.3" x="1819.7" y="5051" class="st2" width="77" height="435.4"/>
<rect id="E1B_-_71D5.3" x="1896.7" y="5051" class="st2" width="77" height="435.4"/>
<rect id="E1B_-_71D5.2" x="1896.7" y="4578.3" class="st2" width="77" height="435.4"/>
<rect id="E1B_-_71D5.1" x="1819.7" y="4578.3" class="st2" width="77" height="435.4"/>
<rect id="E1B_-_71C3.1" x="2358.2" y="5523.6" class="st2" width="77" height="435.4"/>
<rect id="E1B_-_71C3.2" x="2435.2" y="5523.6" class="st2" width="77" height="435.4"/>
<rect id="E1B_-_71C3.3" x="2358.2" y="5051" class="st2" width="77" height="435.4"/>
<rect id="E1B_-_71D4.3" x="2435.2" y="5051" class="st2" width="77" height="435.4"/>
<rect id="E1B_-_71D4.2" x="2435.2" y="4578.3" class="st2" width="77" height="435.4"/>
<rect id="E1B_-_71D4.1" x="2358.2" y="4578.3" class="st2" width="77" height="435.4"/>
<rect id="E1B_-_71C2.1" x="2628.6" y="5523.6" class="st2" width="77" height="435.4"/>
<rect id="E1B_-_71C2.2" x="2705.6" y="5523.6" class="st2" width="77" height="435.4"/>
<rect id="E1B_-_71C2.3" x="2628.6" y="5051" class="st2" width="77" height="435.4"/>
<rect id="E1B_-_71D3.3" x="2705.6" y="5051" class="st2" width="77" height="435.4"/>
<rect id="E1B_-_71D3.2" x="2705.6" y="4578.3" class="st2" width="77" height="435.4"/>
<rect id="E1B_-_71D3.1" x="2628.6" y="4578.3" class="st2" width="77" height="435.4"/>
<rect id="E1B_-_71C1.1" x="3160.7" y="5523.6" class="st2" width="77" height="435.4"/>
<rect id="E1B_-_71C1.2" x="3237.7" y="5523.6" class="st2" width="77" height="435.4"/>
<rect id="E1B_-_71C1.3" x="3160.7" y="5051" class="st2" width="77" height="435.4"/>
<rect id="E1B_-_71D2.3" x="3237.7" y="5051" class="st2" width="77" height="435.4"/>
<rect id="E1B_-_71D2.2" x="3237.7" y="4578.3" class="st2" width="77" height="435.4"/>
<rect id="E1B_-_71D2.1" x="3160.7" y="4578.3" class="st2" width="77" height="435.4"/>
<rect id="E1B_-_71B1.1" x="3600.3" y="5523.6" class="st2" width="77" height="435.4"/>
<rect id="E1B_-_71B1.2" x="3677.3" y="5523.6" class="st2" width="77" height="435.4"/>
<rect id="E1B_-_71B1.3" x="3600.3" y="5051" class="st2" width="77" height="435.4"/>
<rect id="E1B_-_71D1.3" x="3677.3" y="5051" class="st2" width="77" height="435.4"/>
<rect id="E1B_-_71D1.2" x="3677.3" y="4578.3" class="st2" width="77" height="435.4"/>
<rect id="E1B_-_71D1.1" x="3600.3" y="4578.3" class="st2" width="77" height="435.4"/>
<rect id="E1B_-_71B2.1" x="4136.3" y="5523.6" class="st2" width="77" height="435.4"/>
<rect id="E1B_-_71B2.2" x="4213.3" y="5523.6" class="st2" width="77" height="435.4"/>
<rect id="E1B_-_71B2.3" x="4136.3" y="5051" class="st2" width="77" height="435.4"/>
<rect id="E1B_-_71B5.3" x="4213.3" y="5051" class="st2" width="77" height="435.4"/>
<rect id="E1B_-_71B5.2" x="4213.3" y="4578.3" class="st2" width="77" height="435.4"/>
<rect id="E1B_-_71B5.1" x="4136.3" y="4578.3" class="st2" width="77" height="435.4"/>
<rect id="E1B_-_71B3.1" x="4406.7" y="5523.6" class="st2" width="77" height="435.4"/>
<rect id="E1B_-_71B3.2" x="4483.7" y="5523.6" class="st2" width="77" height="435.4"/>
<rect id="E1B_-_71B3.3" x="4406.7" y="5051" class="st2" width="77" height="435.4"/>
<rect id="E1B_-_71B4.3" x="4483.7" y="5051" class="st2" width="77" height="435.4"/>
<rect id="E1B_-_71B4.2" x="4483.7" y="4578.3" class="st2" width="77" height="435.4"/>
<rect id="E1B_-_71B4.1" x="4406.7" y="4578.3" class="st2" width="77" height="435.4"/>
<g>
	<text transform="matrix(0 1 -1 0 212.6543 251.3347)" class="st0 st3">.1</text>
	<text transform="matrix(0 1 -1 0 26.7012 251.3347)" class="st0 st3">.2</text>
	<text transform="matrix(0 1 -1 0 212.6543 719.1616)" class="st0 st3">.3</text>
	<text transform="matrix(0 1 -1 0 26.7012 719.1616)" class="st0 st3">.4</text>
	<text transform="matrix(0 1 -1 0 212.6543 1199.8921)" class="st0 st3">.5</text>
	<text transform="matrix(0 1 -1 0 26.7012 1199.8921)" class="st0 st3">.6</text>
</g>
<g>
	<text transform="matrix(0 1 -1 0 742.377 251.3347)" class="st0 st3">.1</text>
	<text transform="matrix(0 1 -1 0 556.4238 251.3347)" class="st0 st3">.2</text>
	<text transform="matrix(0 1 -1 0 742.377 719.1616)" class="st0 st3">.3</text>
	<text transform="matrix(0 1 -1 0 556.4238 719.1616)" class="st0 st3">.4</text>
	<text transform="matrix(0 1 -1 0 742.377 1199.8921)" class="st0 st3">.5</text>
	<text transform="matrix(0 1 -1 0 556.4238 1199.8921)" class="st0 st3">.6</text>
</g>
<g>
	<text transform="matrix(0 1 -1 0 1011.5176 251.3347)" class="st0 st3">.1</text>
	<text transform="matrix(0 1 -1 0 825.5645 251.3347)" class="st0 st3">.2</text>
	<text transform="matrix(0 1 -1 0 1011.5176 719.1616)" class="st0 st3">.3</text>
	<text transform="matrix(0 1 -1 0 825.5645 719.1616)" class="st0 st3">.4</text>
	<text transform="matrix(0 1 -1 0 1011.5176 1199.8921)" class="st0 st3">.5</text>
	<text transform="matrix(0 1 -1 0 825.5645 1199.8921)" class="st0 st3">.6</text>
</g>
<g>
	<text transform="matrix(0 1 -1 0 1551.6074 251.3347)" class="st0 st3">.1</text>
	<text transform="matrix(0 1 -1 0 1365.6543 251.3347)" class="st0 st3">.2</text>
	<text transform="matrix(0 1 -1 0 1551.6074 719.1616)" class="st0 st3">.3</text>
	<text transform="matrix(0 1 -1 0 1365.6543 719.1616)" class="st0 st3">.4</text>
	<text transform="matrix(0 1 -1 0 1551.6074 1199.8921)" class="st0 st3">.5</text>
	<text transform="matrix(0 1 -1 0 1365.6543 1199.8921)" class="st0 st3">.6</text>
</g>
<g>
	<text transform="matrix(0 1 -1 0 1820.748 251.3347)" class="st0 st3">.1</text>
	<text transform="matrix(0 1 -1 0 1634.7949 251.3347)" class="st0 st3">.2</text>
	<text transform="matrix(0 1 -1 0 1820.748 719.1616)" class="st0 st3">.3</text>
	<text transform="matrix(0 1 -1 0 1634.7949 719.1616)" class="st0 st3">.4</text>
	<text transform="matrix(0 1 -1 0 1820.748 1199.8921)" class="st0 st3">.5</text>
	<text transform="matrix(0 1 -1 0 1634.7949 1199.8921)" class="st0 st3">.6</text>
</g>
<g>
	<text transform="matrix(0 1 -1 0 2356.7773 251.3347)" class="st0 st3">.1</text>
	<text transform="matrix(0 1 -1 0 2170.8242 251.3347)" class="st0 st3">.2</text>
	<text transform="matrix(0 1 -1 0 2356.7773 719.1616)" class="st0 st3">.3</text>
	<text transform="matrix(0 1 -1 0 2170.8242 719.1616)" class="st0 st3">.4</text>
	<text transform="matrix(0 1 -1 0 2356.7773 1199.8921)" class="st0 st3">.5</text>
	<text transform="matrix(0 1 -1 0 2170.8242 1199.8921)" class="st0 st3">.6</text>
</g>
<g>
	<text transform="matrix(0 1 -1 0 742.377 1801.6138)" class="st0 st3">.6</text>
	<text transform="matrix(0 1 -1 0 556.4238 1801.6138)" class="st0 st3">.5</text>
	<text transform="matrix(0 1 -1 0 742.377 2269.4407)" class="st0 st3">.4</text>
	<text transform="matrix(0 1 -1 0 556.4238 2269.4407)" class="st0 st3">.3</text>
	<text transform="matrix(0 1 -1 0 742.377 2750.1711)" class="st0 st3">.2</text>
	<text transform="matrix(0 1 -1 0 556.4238 2750.1711)" class="st0 st3">.1</text>
</g>
<g>
	<text transform="matrix(0 1 -1 0 1014.0244 1801.6138)" class="st0 st3">.6</text>
	<text transform="matrix(0 1 -1 0 828.0713 1801.6138)" class="st0 st3">.5</text>
	<text transform="matrix(0 1 -1 0 1014.0244 2269.4407)" class="st0 st3">.4</text>
	<text transform="matrix(0 1 -1 0 828.0713 2269.4407)" class="st0 st3">.3</text>
	<text transform="matrix(0 1 -1 0 1014.0244 2750.1711)" class="st0 st3">.2</text>
	<text transform="matrix(0 1 -1 0 828.0713 2750.1711)" class="st0 st3">.1</text>
</g>
<g>
	<text transform="matrix(0 1 -1 0 1549.0527 1801.6138)" class="st0 st3">.6</text>
	<text transform="matrix(0 1 -1 0 1363.0996 1801.6138)" class="st0 st3">.5</text>
	<text transform="matrix(0 1 -1 0 1549.0527 2269.4407)" class="st0 st3">.4</text>
	<text transform="matrix(0 1 -1 0 1363.0996 2269.4407)" class="st0 st3">.3</text>
	<text transform="matrix(0 1 -1 0 1549.0527 2750.1711)" class="st0 st3">.2</text>
	<text transform="matrix(0 1 -1 0 1363.0996 2750.1711)" class="st0 st3">.1</text>
</g>
<g>
	<text transform="matrix(0 1 -1 0 1820.7002 1801.6138)" class="st0 st3">.6</text>
	<text transform="matrix(0 1 -1 0 1634.7471 1801.6138)" class="st0 st3">.5</text>
	<text transform="matrix(0 1 -1 0 1820.7002 2269.4407)" class="st0 st3">.4</text>
	<text transform="matrix(0 1 -1 0 1634.7471 2269.4407)" class="st0 st3">.3</text>
	<text transform="matrix(0 1 -1 0 1820.7002 2750.1711)" class="st0 st3">.2</text>
	<text transform="matrix(0 1 -1 0 1634.7471 2750.1711)" class="st0 st3">.1</text>
</g>
<g>
	<text transform="matrix(0 1 -1 0 2357.7773 1801.6138)" class="st0 st3">.6</text>
	<text transform="matrix(0 1 -1 0 2171.8242 1801.6138)" class="st0 st3">.5</text>
	<text transform="matrix(0 1 -1 0 2357.7773 2269.4407)" class="st0 st3">.4</text>
	<text transform="matrix(0 1 -1 0 2171.8242 2269.4407)" class="st0 st3">.3</text>
	<text transform="matrix(0 1 -1 0 2357.7773 2750.1711)" class="st0 st3">.2</text>
	<text transform="matrix(0 1 -1 0 2171.8242 2750.1711)" class="st0 st3">.1</text>
</g>
<g>
	<text transform="matrix(0 1 -1 0 2929.4043 1801.6138)" class="st0 st3">.2</text>
	<text transform="matrix(0 1 -1 0 2743.4512 1801.6138)" class="st0 st3">.1</text>
	<text transform="matrix(0 1 -1 0 2929.4043 2269.4407)" class="st0 st3">.3</text>
	<text transform="matrix(0 1 -1 0 2743.4512 2269.4407)" class="st0 st3">.3</text>
	<text transform="matrix(0 1 -1 0 2929.4043 2750.1711)" class="st0 st3">.2</text>
	<text transform="matrix(0 1 -1 0 2743.4512 2750.1711)" class="st0 st3">.1</text>
</g>
<g>
	<text transform="matrix(0 1 -1 0 3465.7754 1801.6138)" class="st0 st3">.2</text>
	<text transform="matrix(0 1 -1 0 3279.8223 1801.6138)" class="st0 st3">.1</text>
	<text transform="matrix(0 1 -1 0 3465.7754 2269.4407)" class="st0 st3">.3</text>
	<text transform="matrix(0 1 -1 0 3279.8223 2269.4407)" class="st0 st3">.3</text>
	<text transform="matrix(0 1 -1 0 3465.7754 2750.1711)" class="st0 st3">.2</text>
	<text transform="matrix(0 1 -1 0 3279.8223 2750.1711)" class="st0 st3">.1</text>
</g>
<g>
	<text transform="matrix(0 1 -1 0 3735.209 1801.6138)" class="st0 st3">.2</text>
	<text transform="matrix(0 1 -1 0 3549.2559 1801.6138)" class="st0 st3">.1</text>
	<text transform="matrix(0 1 -1 0 3735.209 2269.4407)" class="st0 st3">.3</text>
	<text transform="matrix(0 1 -1 0 3549.2559 2269.4407)" class="st0 st3">.3</text>
	<text transform="matrix(0 1 -1 0 3735.209 2750.1711)" class="st0 st3">.2</text>
	<text transform="matrix(0 1 -1 0 3549.2559 2750.1711)" class="st0 st3">.1</text>
</g>
<g>
	<text transform="matrix(0 1 -1 0 4269.7832 1801.6138)" class="st0 st3">.2</text>
	<text transform="matrix(0 1 -1 0 4083.8301 1801.6138)" class="st0 st3">.1</text>
	<text transform="matrix(0 1 -1 0 4269.7832 2269.4407)" class="st0 st3">.3</text>
	<text transform="matrix(0 1 -1 0 4083.8301 2269.4407)" class="st0 st3">.3</text>
	<text transform="matrix(0 1 -1 0 4269.7832 2750.1711)" class="st0 st3">.2</text>
	<text transform="matrix(0 1 -1 0 4083.8301 2750.1711)" class="st0 st3">.1</text>
</g>
<g>
	<text transform="matrix(0 1 -1 0 4539.2168 1801.6138)" class="st0 st3">.2</text>
	<text transform="matrix(0 1 -1 0 4353.2637 1801.6138)" class="st0 st3">.1</text>
	<text transform="matrix(0 1 -1 0 4539.2168 2269.4407)" class="st0 st3">.3</text>
	<text transform="matrix(0 1 -1 0 4353.2637 2269.4407)" class="st0 st3">.3</text>
	<text transform="matrix(0 1 -1 0 4539.2168 2750.1711)" class="st0 st3">.2</text>
	<text transform="matrix(0 1 -1 0 4353.2637 2750.1711)" class="st0 st3">.1</text>
</g>
<g>
	<text transform="matrix(0 1 -1 0 22.3232 5067.8501)" class="st0 st3">.3</text>
	<text transform="matrix(0 1 -1 0 208.2764 5548.5806)" class="st0 st3">.2</text>
	<text transform="matrix(0 1 -1 0 22.3232 5548.5806)" class="st0 st3">.1</text>
</g>
<g>
	<text transform="matrix(0 1 -1 0 556.2129 5067.8501)" class="st0 st3">.3</text>
	<text transform="matrix(0 1 -1 0 742.166 5548.5806)" class="st0 st3">.2</text>
	<text transform="matrix(0 1 -1 0 556.2129 5548.5806)" class="st0 st3">.1</text>
</g>
<g>
	<text transform="matrix(0 1 -1 0 830.3936 5067.8501)" class="st0 st3">.3</text>
	<text transform="matrix(0 1 -1 0 1016.3467 5548.5806)" class="st0 st3">.2</text>
	<text transform="matrix(0 1 -1 0 830.3936 5548.5806)" class="st0 st3">.1</text>
</g>
<g>
	<text transform="matrix(0 1 -1 0 1547.127 4605.5366)" class="st0 st3">.2</text>
	<text transform="matrix(0 1 -1 0 1361.1729 4605.5366)" class="st0 st3">.1</text>
	<text transform="matrix(0 1 -1 0 1547.127 5073.3638)" class="st0 st3">.3</text>
	<text transform="matrix(0 1 -1 0 1361.1729 5073.3638)" class="st0 st3">.3</text>
	<text transform="matrix(0 1 -1 0 1547.127 5554.0942)" class="st0 st3">.2</text>
	<text transform="matrix(0 1 -1 0 1361.1729 5554.0942)" class="st0 st3">.1</text>
</g>
<g>
	<text transform="matrix(0 1 -1 0 1985.3008 4605.5366)" class="st0 st3">.2</text>
	<text transform="matrix(0 1 -1 0 1799.3477 4605.5366)" class="st0 st3">.1</text>
	<text transform="matrix(0 1 -1 0 1985.3008 5073.3638)" class="st0 st3">.3</text>
	<text transform="matrix(0 1 -1 0 1799.3477 5073.3638)" class="st0 st3">.3</text>
	<text transform="matrix(0 1 -1 0 1985.3008 5554.0942)" class="st0 st3">.2</text>
	<text transform="matrix(0 1 -1 0 1799.3477 5554.0942)" class="st0 st3">.1</text>
</g>
<g>
	<text transform="matrix(0 1 -1 0 2523.9648 4605.5366)" class="st0 st3">.2</text>
	<text transform="matrix(0 1 -1 0 2338.0098 4605.5366)" class="st0 st3">.1</text>
	<text transform="matrix(0 1 -1 0 2523.9648 5073.3638)" class="st0 st3">.3</text>
	<text transform="matrix(0 1 -1 0 2338.0098 5073.3638)" class="st0 st3">.3</text>
	<text transform="matrix(0 1 -1 0 2523.9648 5554.0942)" class="st0 st3">.2</text>
	<text transform="matrix(0 1 -1 0 2338.0098 5554.0942)" class="st0 st3">.1</text>
</g>
<g>
	<text transform="matrix(0 1 -1 0 2792.0605 4605.5366)" class="st0 st3">.2</text>
	<text transform="matrix(0 1 -1 0 2606.1074 4605.5366)" class="st0 st3">.1</text>
	<text transform="matrix(0 1 -1 0 2792.0605 5073.3638)" class="st0 st3">.3</text>
	<text transform="matrix(0 1 -1 0 2606.1074 5073.3638)" class="st0 st3">.3</text>
	<text transform="matrix(0 1 -1 0 2792.0605 5554.0942)" class="st0 st3">.2</text>
	<text transform="matrix(0 1 -1 0 2606.1074 5554.0942)" class="st0 st3">.1</text>
</g>
<g>
	<text transform="matrix(0 1 -1 0 3325.5293 4605.5366)" class="st0 st3">.2</text>
	<text transform="matrix(0 1 -1 0 3139.5742 4605.5366)" class="st0 st3">.1</text>
	<text transform="matrix(0 1 -1 0 3325.5293 5073.3638)" class="st0 st3">.3</text>
	<text transform="matrix(0 1 -1 0 3139.5742 5073.3638)" class="st0 st3">.3</text>
	<text transform="matrix(0 1 -1 0 3325.5293 5554.0942)" class="st0 st3">.2</text>
	<text transform="matrix(0 1 -1 0 3139.5742 5554.0942)" class="st0 st3">.1</text>
</g>
<g>
	<text transform="matrix(0 1 -1 0 3763.1758 4605.5366)" class="st0 st3">.2</text>
	<text transform="matrix(0 1 -1 0 3577.2227 4605.5366)" class="st0 st3">.1</text>
	<text transform="matrix(0 1 -1 0 3763.1758 5073.3638)" class="st0 st3">.3</text>
	<text transform="matrix(0 1 -1 0 3577.2227 5073.3638)" class="st0 st3">.3</text>
	<text transform="matrix(0 1 -1 0 3763.1758 5554.0942)" class="st0 st3">.2</text>
	<text transform="matrix(0 1 -1 0 3577.2227 5554.0942)" class="st0 st3">.1</text>
</g>
<g>
	<text transform="matrix(0 1 -1 0 4302.4199 4605.5366)" class="st0 st3">.2</text>
	<text transform="matrix(0 1 -1 0 4116.4648 4605.5366)" class="st0 st3">.1</text>
	<text transform="matrix(0 1 -1 0 4302.4199 5073.3638)" class="st0 st3">.3</text>
	<text transform="matrix(0 1 -1 0 4116.4648 5073.3638)" class="st0 st3">.3</text>
	<text transform="matrix(0 1 -1 0 4302.4199 5554.0942)" class="st0 st3">.2</text>
	<text transform="matrix(0 1 -1 0 4116.4648 5554.0942)" class="st0 st3">.1</text>
</g>
<g>
	<text transform="matrix(0 1 -1 0 4570.5156 4605.5366)" class="st0 st3">.2</text>
	<text transform="matrix(0 1 -1 0 4384.5625 4605.5366)" class="st0 st3">.1</text>
	<text transform="matrix(0 1 -1 0 4570.5156 5073.3638)" class="st0 st3">.3</text>
	<text transform="matrix(0 1 -1 0 4384.5625 5073.3638)" class="st0 st3">.3</text>
	<text transform="matrix(0 1 -1 0 4570.5156 5554.0942)" class="st0 st3">.2</text>
	<text transform="matrix(0 1 -1 0 4384.5625 5554.0942)" class="st0 st3">.1</text>
</g>
</svg>
