<?xml version="1.0" encoding="utf-8"?>
<!-- Generator: Adobe Illustrator 27.8.1, SVG Export Plug-In . SVG Version: 6.00 Build 0)  -->
<svg version="1.1" id="Layer_1" xmlns="http://www.w3.org/2000/svg" xmlns:xlink="http://www.w3.org/1999/xlink" x="0px" y="0px"
	 viewBox="0 0 4207.8 7630.9" style="enable-background:new 0 0 4207.8 7630.9;" xml:space="preserve">
<style type="text/css">
	.st0{font-family:'Calibri';}
	.st1{font-size:208.4957px;}
	.st2{fill:#FFFFFF;stroke:#000000;stroke-width:0.1358;stroke-miterlimit:1.3588;}
	.st3{font-size:50px;}
	.st4{enable-background:new    ;}
</style>
<g>
	<text transform="matrix(1 0 0 1 2397.2856 232.4577)" class="st0 st1">81B1</text>
	<text transform="matrix(1 0 0 1 2390.0576 1220.5549)" class="st0 st1">81A1</text>
	<text transform="matrix(1 0 0 1 2390.0576 1706.5776)" class="st0 st1">81A2</text>
	<text transform="matrix(1 0 0 1 2390.0576 2693.5713)" class="st0 st1">81A3</text>
	<text transform="matrix(1 0 0 1 2390.0576 3179.594)" class="st0 st1">81A4</text>
	<text transform="matrix(1 0 0 1 2390.0576 4165.4165)" class="st0 st1">81A5</text>
	<text transform="matrix(1 0 0 1 2390.0576 5079.9619)" class="st0 st1">81A6</text>
	<text transform="matrix(1 0 0 1 2390.0576 6067.8896)" class="st0 st1">81A7</text>
	<text transform="matrix(1 0 0 1 2390.0576 6553.9126)" class="st0 st1">81A8</text>
	<text transform="matrix(1 0 0 1 1372.0233 1706.5776)" class="st0 st1">81B2</text>
	<text transform="matrix(1 0 0 1 1380.3621 2693.5713)" class="st0 st1">81B3</text>
	<text transform="matrix(1 0 0 1 1388.7007 3179.594)" class="st0 st1">81B4</text>
	<text transform="matrix(1 0 0 1 1388.7007 4165.4165)" class="st0 st1">81B5</text>
	<text transform="matrix(1 0 0 1 1376.4329 5079.9619)" class="st0 st1">81B6</text>
	<text transform="matrix(1 0 0 1 1384.771 6067.8896)" class="st0 st1">81B7</text>
	<text transform="matrix(1 0 0 1 1384.771 6553.9126)" class="st0 st1">81B8</text>
	<text transform="matrix(1 0 0 1 2390.0576 7540.6914)" class="st0 st1">81A9</text>
	<text transform="matrix(1 0 0 1 1393.1096 7540.6914)" class="st0 st1">81B9</text>
</g>
<rect id="E5_-_81B1_-_Cold_Cx_Pt._1" x="3046.2" y="34.2" class="st2" width="368.7" height="262.3"/>
<rect id="E5_-_81B1_-_Cold_Cx_Pt._2" x="3414.9" y="34.2" class="st2" width="368.7" height="262.3"/>
<rect id="E5_-_81B1_-_Software_Update" x="3783.6" y="34.2" class="st2" width="368.7" height="262.3"/>
<g>
	<text transform="matrix(1 0 0 1 3089.106 175.8959)" class="st0 st3">COLD CX PT. 1</text>
	<text transform="matrix(1 0 0 1 3460.9573 176.3454)" class="st0 st3">COLD CX PT. 2</text>
	<text transform="matrix(1 0 0 1 3853.7202 144.2958)" class="st4"><tspan x="0" y="0" class="st0 st3">SOFTWARE</tspan><tspan x="15.6" y="60" class="st0 st3">UPDATED</tspan></text>
</g>
<rect id="E5_-_81A1_-_Cold_Cx_Pt._1" x="3046.2" y="1022.3" class="st2" width="368.7" height="262.3"/>
<rect id="E5_-_81A1_-_Cold_Cx_Pt._2" x="3414.9" y="1022.3" class="st2" width="368.7" height="262.3"/>
<rect id="E5_-_81A1_-_Software_Update" x="3783.6" y="1022.3" class="st2" width="368.7" height="262.3"/>
<g>
	<text transform="matrix(1 0 0 1 3089.106 1163.9956)" class="st0 st3">COLD CX PT. 1</text>
	<text transform="matrix(1 0 0 1 3460.9573 1164.4451)" class="st0 st3">COLD CX PT. 2</text>
	<text transform="matrix(1 0 0 1 3853.7202 1132.3955)" class="st4"><tspan x="0" y="0" class="st0 st3">SOFTWARE</tspan><tspan x="15.6" y="60" class="st0 st3">UPDATED</tspan></text>
</g>
<rect id="E5_-_81A2_-_Cold_Cx_Pt._1" x="3046.2" y="1508.3" class="st2" width="368.7" height="262.3"/>
<rect id="E5_-_81A2_-_Cold_Cx_Pt._2" x="3414.9" y="1508.3" class="st2" width="368.7" height="262.3"/>
<rect id="E5_-_81A2_-_Software_Update" x="3783.6" y="1508.3" class="st2" width="368.7" height="262.3"/>
<g>
	<text transform="matrix(1 0 0 1 3089.106 1649.9956)" class="st0 st3">COLD CX PT. 1</text>
	<text transform="matrix(1 0 0 1 3460.9573 1650.4451)" class="st0 st3">COLD CX PT. 2</text>
	<text transform="matrix(1 0 0 1 3853.7202 1618.3955)" class="st4"><tspan x="0" y="0" class="st0 st3">SOFTWARE</tspan><tspan x="15.6" y="60" class="st0 st3">UPDATED</tspan></text>
</g>
<rect id="E5_-_81A3_-_Cold_Cx_Pt._1" x="3046.2" y="2495.3" class="st2" width="368.7" height="262.3"/>
<rect id="E5_-_81A3_-_Cold_Cx_Pt._2" x="3414.9" y="2495.3" class="st2" width="368.7" height="262.3"/>
<rect id="E5_-_81A3_-_Software_Update" x="3783.6" y="2495.3" class="st2" width="368.7" height="262.3"/>
<g>
	<text transform="matrix(1 0 0 1 3089.106 2636.9956)" class="st0 st3">COLD CX PT. 1</text>
	<text transform="matrix(1 0 0 1 3460.9573 2637.4451)" class="st0 st3">COLD CX PT. 2</text>
	<text transform="matrix(1 0 0 1 3853.7202 2605.3955)" class="st4"><tspan x="0" y="0" class="st0 st3">SOFTWARE</tspan><tspan x="15.6" y="60" class="st0 st3">UPDATED</tspan></text>
</g>
<rect id="E5_-_81A4_-_Cold_Cx_Pt._1" x="3046.2" y="2981.3" class="st2" width="368.7" height="262.3"/>
<rect id="E5_-_81A4_-_Cold_Cx_Pt._2" x="3414.9" y="2981.3" class="st2" width="368.7" height="262.3"/>
<rect id="E5_-_81A4_-_Software_Update" x="3783.6" y="2981.3" class="st2" width="368.7" height="262.3"/>
<g>
	<text transform="matrix(1 0 0 1 3089.106 3122.9956)" class="st0 st3">COLD CX PT. 1</text>
	<text transform="matrix(1 0 0 1 3460.9573 3123.4451)" class="st0 st3">COLD CX PT. 2</text>
	<text transform="matrix(1 0 0 1 3853.7202 3091.3955)" class="st4"><tspan x="0" y="0" class="st0 st3">SOFTWARE</tspan><tspan x="15.6" y="60" class="st0 st3">UPDATED</tspan></text>
</g>
<rect id="E5_-_81A5_-_Cold_Cx_Pt._1" x="3046.2" y="3967.1" class="st2" width="368.7" height="262.3"/>
<rect id="E5_-_81A5_-_Cold_Cx_Pt._2" x="3414.9" y="3967.1" class="st2" width="368.7" height="262.3"/>
<rect id="E5_-_81A5_-_Software_Update" x="3783.6" y="3967.1" class="st2" width="368.7" height="262.3"/>
<g>
	<text transform="matrix(1 0 0 1 3089.106 4108.7954)" class="st0 st3">COLD CX PT. 1</text>
	<text transform="matrix(1 0 0 1 3460.9573 4109.2451)" class="st0 st3">COLD CX PT. 2</text>
	<text transform="matrix(1 0 0 1 3853.7202 4077.1956)" class="st4"><tspan x="0" y="0" class="st0 st3">SOFTWARE</tspan><tspan x="15.6" y="60" class="st0 st3">UPDATED</tspan></text>
</g>
<rect id="E5_-_81A6_-_Cold_Cx_Pt._1" x="3046.2" y="4881.7" class="st2" width="368.7" height="262.3"/>
<rect id="E5_-_81A6_-_Cold_Cx_Pt._2" x="3414.9" y="4881.7" class="st2" width="368.7" height="262.3"/>
<rect id="E5_-_81A6_-_Software_Update" x="3783.6" y="4881.7" class="st2" width="368.7" height="262.3"/>
<g>
	<text transform="matrix(1 0 0 1 3089.106 5023.3955)" class="st0 st3">COLD CX PT. 1</text>
	<text transform="matrix(1 0 0 1 3460.9573 5023.8452)" class="st0 st3">COLD CX PT. 2</text>
	<text transform="matrix(1 0 0 1 3853.7202 4991.7954)" class="st4"><tspan x="0" y="0" class="st0 st3">SOFTWARE</tspan><tspan x="15.6" y="60" class="st0 st3">UPDATED</tspan></text>
</g>
<rect id="E5_-_81A7_-_Cold_Cx_Pt._1" x="3046.2" y="5869.6" class="st2" width="368.7" height="262.3"/>
<rect id="E5_-_81A7_-_Cold_Cx_Pt._2" x="3414.9" y="5869.6" class="st2" width="368.7" height="262.3"/>
<rect id="E5_-_81A7_-_Software_Update" x="3783.6" y="5869.6" class="st2" width="368.7" height="262.3"/>
<g>
	<text transform="matrix(1 0 0 1 3089.106 6011.2954)" class="st0 st3">COLD CX PT. 1</text>
	<text transform="matrix(1 0 0 1 3460.9573 6011.7451)" class="st0 st3">COLD CX PT. 2</text>
	<text transform="matrix(1 0 0 1 3853.7202 5979.6953)" class="st4"><tspan x="0" y="0" class="st0 st3">SOFTWARE</tspan><tspan x="15.6" y="60" class="st0 st3">UPDATED</tspan></text>
</g>
<rect id="E5_-_81A8_-_Cold_Cx_Pt._1" x="3046.2" y="6355.6" class="st2" width="368.7" height="262.3"/>
<rect id="E5_-_81A8_-_Cold_Cx_Pt._2" x="3414.9" y="6355.6" class="st2" width="368.7" height="262.3"/>
<rect id="E5_-_81A8_-_Software_Update" x="3783.6" y="6355.6" class="st2" width="368.7" height="262.3"/>
<g>
	<text transform="matrix(1 0 0 1 3089.106 6497.2954)" class="st0 st3">COLD CX PT. 1</text>
	<text transform="matrix(1 0 0 1 3460.9573 6497.7451)" class="st0 st3">COLD CX PT. 2</text>
	<text transform="matrix(1 0 0 1 3853.7202 6465.6953)" class="st4"><tspan x="0" y="0" class="st0 st3">SOFTWARE</tspan><tspan x="15.6" y="60" class="st0 st3">UPDATED</tspan></text>
</g>
<rect id="E5_-_81A9_-_Cold_Cx_Pt._1" x="3046.2" y="7342.4" class="st2" width="368.7" height="262.3"/>
<rect id="E5_-_81A9_-_Cold_Cx_Pt._2" x="3414.9" y="7342.4" class="st2" width="368.7" height="262.3"/>
<rect id="E5_-_81A9_-_Software_Update" x="3783.6" y="7342.4" class="st2" width="368.7" height="262.3"/>
<g>
	<text transform="matrix(1 0 0 1 3089.106 7484.0952)" class="st0 st3">COLD CX PT. 1</text>
	<text transform="matrix(1 0 0 1 3460.9573 7484.5449)" class="st0 st3">COLD CX PT. 2</text>
	<text transform="matrix(1 0 0 1 3853.7202 7452.4951)" class="st4"><tspan x="0" y="0" class="st0 st3">SOFTWARE</tspan><tspan x="15.6" y="60" class="st0 st3">UPDATED</tspan></text>
</g>
<rect id="E5_-_81B2_-_Cold_Cx_Pt._1" x="42.1" y="1508.3" class="st2" width="368.7" height="262.3"/>
<rect id="E5_-_81B2_-_Cold_Cx_Pt._2" x="410.8" y="1508.3" class="st2" width="368.7" height="262.3"/>
<rect id="E5_-_81B2_-_Software_Update" x="779.5" y="1508.3" class="st2" width="368.7" height="262.3"/>
<g>
	<text transform="matrix(1 0 0 1 85.0115 1649.9956)" class="st0 st3">COLD CX PT. 1</text>
	<text transform="matrix(1 0 0 1 456.8629 1650.4451)" class="st0 st3">COLD CX PT. 2</text>
	<text transform="matrix(1 0 0 1 849.6258 1618.3955)" class="st4"><tspan x="0" y="0" class="st0 st3">SOFTWARE</tspan><tspan x="15.6" y="60" class="st0 st3">UPDATED</tspan></text>
</g>
<rect id="E5_-_81B3_-_Cold_Cx_Pt._1" x="42.1" y="2495.3" class="st2" width="368.7" height="262.3"/>
<rect id="E5_-_81B3_-_Cold_Cx_Pt._2" x="410.8" y="2495.3" class="st2" width="368.7" height="262.3"/>
<rect id="E5_-_81B3_-_Software_Update" x="779.5" y="2495.3" class="st2" width="368.7" height="262.3"/>
<g>
	<text transform="matrix(1 0 0 1 85.0115 2636.9956)" class="st0 st3">COLD CX PT. 1</text>
	<text transform="matrix(1 0 0 1 456.8629 2637.4451)" class="st0 st3">COLD CX PT. 2</text>
	<text transform="matrix(1 0 0 1 849.6258 2605.3955)" class="st4"><tspan x="0" y="0" class="st0 st3">SOFTWARE</tspan><tspan x="15.6" y="60" class="st0 st3">UPDATED</tspan></text>
</g>
<rect id="E5_-_81B4_-_Cold_Cx_Pt._1" x="42.1" y="2981.3" class="st2" width="368.7" height="262.3"/>
<rect id="E5_-_81B4_-_Cold_Cx_Pt._2" x="410.8" y="2981.3" class="st2" width="368.7" height="262.3"/>
<rect id="E5_-_81B4_-_Software_Update" x="779.5" y="2981.3" class="st2" width="368.7" height="262.3"/>
<g>
	<text transform="matrix(1 0 0 1 85.0115 3122.9956)" class="st0 st3">COLD CX PT. 1</text>
	<text transform="matrix(1 0 0 1 456.8629 3123.4451)" class="st0 st3">COLD CX PT. 2</text>
	<text transform="matrix(1 0 0 1 849.6258 3091.3955)" class="st4"><tspan x="0" y="0" class="st0 st3">SOFTWARE</tspan><tspan x="15.6" y="60" class="st0 st3">UPDATED</tspan></text>
</g>
<rect id="E5_-_81B5_-_Cold_Cx_Pt._1" x="42.1" y="3967.1" class="st2" width="368.7" height="262.3"/>
<rect id="E5_-_81B5_-_Cold_Cx_Pt._2" x="410.8" y="3967.1" class="st2" width="368.7" height="262.3"/>
<rect id="E5_-_81B5_-_Software_Update" x="779.5" y="3967.1" class="st2" width="368.7" height="262.3"/>
<g>
	<text transform="matrix(1 0 0 1 85.0115 4108.7954)" class="st0 st3">COLD CX PT. 1</text>
	<text transform="matrix(1 0 0 1 456.8629 4109.2451)" class="st0 st3">COLD CX PT. 2</text>
	<text transform="matrix(1 0 0 1 849.6258 4077.1956)" class="st4"><tspan x="0" y="0" class="st0 st3">SOFTWARE</tspan><tspan x="15.6" y="60" class="st0 st3">UPDATED</tspan></text>
</g>
<rect id="E5_-_81B6_-_Cold_Cx_Pt._1" x="42.1" y="4881.7" class="st2" width="368.7" height="262.3"/>
<rect id="E5_-_81B6_-_Cold_Cx_Pt._2" x="410.8" y="4881.7" class="st2" width="368.7" height="262.3"/>
<rect id="E5_-_81B6_-_Software_Update" x="779.5" y="4881.7" class="st2" width="368.7" height="262.3"/>
<g>
	<text transform="matrix(1 0 0 1 85.0115 5023.3955)" class="st0 st3">COLD CX PT. 1</text>
	<text transform="matrix(1 0 0 1 456.8629 5023.8452)" class="st0 st3">COLD CX PT. 2</text>
	<text transform="matrix(1 0 0 1 849.6258 4991.7954)" class="st4"><tspan x="0" y="0" class="st0 st3">SOFTWARE</tspan><tspan x="15.6" y="60" class="st0 st3">UPDATED</tspan></text>
</g>
<rect id="E5_-_81B7_-_Cold_Cx_Pt._1" x="42.1" y="5869.6" class="st2" width="368.7" height="262.3"/>
<rect id="E5_-_81B7_-_Cold_Cx_Pt._2" x="410.8" y="5869.6" class="st2" width="368.7" height="262.3"/>
<rect id="E5_-_81B7_-_Software_Update" x="779.5" y="5869.6" class="st2" width="368.7" height="262.3"/>
<g>
	<text transform="matrix(1 0 0 1 85.0115 6011.2954)" class="st0 st3">COLD CX PT. 1</text>
	<text transform="matrix(1 0 0 1 456.8629 6011.7451)" class="st0 st3">COLD CX PT. 2</text>
	<text transform="matrix(1 0 0 1 849.6258 5979.6953)" class="st4"><tspan x="0" y="0" class="st0 st3">SOFTWARE</tspan><tspan x="15.6" y="60" class="st0 st3">UPDATED</tspan></text>
</g>
<rect id="E5_-_81B8_-_Cold_Cx_Pt._1" x="42.1" y="6355.6" class="st2" width="368.7" height="262.3"/>
<rect id="E5_-_81B8_-_Cold_Cx_Pt._2" x="410.8" y="6355.6" class="st2" width="368.7" height="262.3"/>
<rect id="E5_-_81B8_-_Software_Update" x="779.5" y="6355.6" class="st2" width="368.7" height="262.3"/>
<g>
	<text transform="matrix(1 0 0 1 85.0115 6497.2954)" class="st0 st3">COLD CX PT. 1</text>
	<text transform="matrix(1 0 0 1 456.8629 6497.7451)" class="st0 st3">COLD CX PT. 2</text>
	<text transform="matrix(1 0 0 1 849.6258 6465.6953)" class="st4"><tspan x="0" y="0" class="st0 st3">SOFTWARE</tspan><tspan x="15.6" y="60" class="st0 st3">UPDATED</tspan></text>
</g>
<rect id="E5_-_81B9_-_Cold_Cx_Pt._1" x="42.1" y="7342.4" class="st2" width="368.7" height="262.3"/>
<rect id="E5_-_81B9_-_Cold_Cx_Pt._2" x="410.8" y="7342.4" class="st2" width="368.7" height="262.3"/>
<rect id="E5_-_81B9_-_Software_Update" x="779.5" y="7342.4" class="st2" width="368.7" height="262.3"/>
<g>
	<text transform="matrix(1 0 0 1 85.0115 7484.0952)" class="st0 st3">COLD CX PT. 1</text>
	<text transform="matrix(1 0 0 1 456.8629 7484.5449)" class="st0 st3">COLD CX PT. 2</text>
	<text transform="matrix(1 0 0 1 849.6258 7452.4951)" class="st4"><tspan x="0" y="0" class="st0 st3">SOFTWARE</tspan><tspan x="15.6" y="60" class="st0 st3">UPDATED</tspan></text>
</g>
</svg>
