<?xml version="1.0" encoding="utf-8"?>
<!-- Generator: Adobe Illustrator 27.8.1, SVG Export Plug-In . SVG Version: 6.00 Build 0)  -->
<svg version="1.1" id="Layer_1" xmlns="http://www.w3.org/2000/svg" xmlns:xlink="http://www.w3.org/1999/xlink" x="0px" y="0px"
	 viewBox="0 0 4207.8 7630.9" style="enable-background:new 0 0 4207.8 7630.9;" xml:space="preserve">
<style type="text/css">
	.st0{fill:#FFFFFF;stroke:#000000;stroke-width:0.1358;stroke-miterlimit:1.3588;}
	.st1{font-family:'Calibri';}
	.st2{font-size:50px;}
	.st3{font-size:208.4957px;}
</style>
<rect id="E5_-_81B1_-_Battery_QC" x="3046.2" y="34.2" class="st0" width="369.8" height="262.3"/>
<rect id="E5_-_81B1_-_Battery_Terms" x="3416" y="34.2" class="st0" width="368.4" height="262.3"/>
<rect id="E5_-_81B1_-_Enclosure_Energization" x="3784.4" y="34.2" class="st0" width="367.9" height="262.3"/>
<g>
	<text transform="matrix(1 0 0 1 3102.8938 178.506)" class="st1 st2">BATTERY QC</text>
	<text transform="matrix(1 0 0 1 3437.4365 178.5063)" class="st1 st2">BATTERY TERMS</text>
	<text transform="matrix(1 0 0 1 3814.0847 203.2255)" class="st1 st2">ENERGIZATION</text>
	<text transform="matrix(1 0 0 1 3843.5867 161.4853)" class="st1 st2">ENCLOSURE</text>
</g>
<rect id="E5_-_81A1_-_Battery_QC" x="3046.2" y="1022.3" class="st0" width="369.8" height="262.3"/>
<rect id="E5_-_81A1_-_Battery_Terms" x="3416" y="1022.3" class="st0" width="368.4" height="262.3"/>
<rect id="E5_-_81A1_-_Enclosure_Energization" x="3784.4" y="1022.3" class="st0" width="367.9" height="262.3"/>
<g>
	<text transform="matrix(1 0 0 1 3102.8938 1166.6062)" class="st1 st2">BATTERY QC</text>
	<text transform="matrix(1 0 0 1 3437.4365 1166.6064)" class="st1 st2">BATTERY TERMS</text>
	<text transform="matrix(1 0 0 1 3814.0847 1191.3257)" class="st1 st2">ENERGIZATION</text>
	<text transform="matrix(1 0 0 1 3843.5867 1149.5854)" class="st1 st2">ENCLOSURE</text>
</g>
<rect id="E5_-_81A2_-_Battery_QC" x="3046.2" y="1508.3" class="st0" width="369.8" height="262.3"/>
<rect id="E5_-_81A2_-_Battery_Terms" x="3416" y="1508.3" class="st0" width="368.4" height="262.3"/>
<rect id="E5_-_81A2_-_Enclosure_Energization" x="3784.4" y="1508.3" class="st0" width="367.9" height="262.3"/>
<g>
	<text transform="matrix(1 0 0 1 3102.8938 1652.6062)" class="st1 st2">BATTERY QC</text>
	<text transform="matrix(1 0 0 1 3437.4365 1652.6064)" class="st1 st2">BATTERY TERMS</text>
	<text transform="matrix(1 0 0 1 3814.0847 1677.3257)" class="st1 st2">ENERGIZATION</text>
	<text transform="matrix(1 0 0 1 3843.5867 1635.5854)" class="st1 st2">ENCLOSURE</text>
</g>
<rect id="E5_-_81A3_-_Battery_QC" x="3046.2" y="2495.3" class="st0" width="369.8" height="262.3"/>
<rect id="E5_-_81A3_-_Battery_Terms" x="3416" y="2495.3" class="st0" width="368.4" height="262.3"/>
<rect id="E5_-_81A3_-_Enclosure_Energization" x="3784.4" y="2495.3" class="st0" width="367.9" height="262.3"/>
<g>
	<text transform="matrix(1 0 0 1 3102.8938 2639.6062)" class="st1 st2">BATTERY QC</text>
	<text transform="matrix(1 0 0 1 3437.4365 2639.6064)" class="st1 st2">BATTERY TERMS</text>
	<text transform="matrix(1 0 0 1 3814.0847 2664.3257)" class="st1 st2">ENERGIZATION</text>
	<text transform="matrix(1 0 0 1 3843.5867 2622.5854)" class="st1 st2">ENCLOSURE</text>
</g>
<rect id="E5_-_81A4_-_Battery_QC" x="3046.2" y="2981.3" class="st0" width="369.8" height="262.3"/>
<rect id="E5_-_81A4_-_Battery_Terms" x="3416" y="2981.3" class="st0" width="368.4" height="262.3"/>
<rect id="E5_-_81A4_-_Enclosure_Energization" x="3784.4" y="2981.3" class="st0" width="367.9" height="262.3"/>
<g>
	<text transform="matrix(1 0 0 1 3102.8938 3125.6062)" class="st1 st2">BATTERY QC</text>
	<text transform="matrix(1 0 0 1 3437.4365 3125.6064)" class="st1 st2">BATTERY TERMS</text>
	<text transform="matrix(1 0 0 1 3814.0847 3150.3257)" class="st1 st2">ENERGIZATION</text>
	<text transform="matrix(1 0 0 1 3843.5867 3108.5854)" class="st1 st2">ENCLOSURE</text>
</g>
<rect id="E5_-_81A5_-_Battery_QC" x="3046.2" y="3967.1" class="st0" width="369.8" height="262.3"/>
<rect id="E5_-_81A5_-_Battery_Terms" x="3416" y="3967.1" class="st0" width="368.4" height="262.3"/>
<rect id="E5_-_81A5_-_Enclosure_Energization" x="3784.4" y="3967.1" class="st0" width="367.9" height="262.3"/>
<g>
	<text transform="matrix(1 0 0 1 3102.8938 4111.4062)" class="st1 st2">BATTERY QC</text>
	<text transform="matrix(1 0 0 1 3437.4365 4111.4062)" class="st1 st2">BATTERY TERMS</text>
	<text transform="matrix(1 0 0 1 3814.0847 4136.1255)" class="st1 st2">ENERGIZATION</text>
	<text transform="matrix(1 0 0 1 3843.5867 4094.3855)" class="st1 st2">ENCLOSURE</text>
</g>
<rect id="E5_-_81A6_-_Battery_QC" x="3046.2" y="4881.7" class="st0" width="369.8" height="262.3"/>
<rect id="E5_-_81A6_-_Battery_Terms" x="3416" y="4881.7" class="st0" width="368.4" height="262.3"/>
<rect id="E5_-_81A6_-_Enclosure_Energization" x="3784.4" y="4881.7" class="st0" width="367.9" height="262.3"/>
<g>
	<text transform="matrix(1 0 0 1 3102.8938 5026.0059)" class="st1 st2">BATTERY QC</text>
	<text transform="matrix(1 0 0 1 3437.4365 5026.0063)" class="st1 st2">BATTERY TERMS</text>
	<text transform="matrix(1 0 0 1 3814.0847 5050.7256)" class="st1 st2">ENERGIZATION</text>
	<text transform="matrix(1 0 0 1 3843.5867 5008.9854)" class="st1 st2">ENCLOSURE</text>
</g>
<rect id="E5_-_81A7_-_Battery_QC" x="3046.2" y="5869.6" class="st0" width="369.8" height="262.3"/>
<rect id="E5_-_81A7_-_Battery_Terms" x="3416" y="5869.6" class="st0" width="368.4" height="262.3"/>
<rect id="E5_-_81A7_-_Enclosure_Energization" x="3784.4" y="5869.6" class="st0" width="367.9" height="262.3"/>
<g>
	<text transform="matrix(1 0 0 1 3102.8938 6013.9058)" class="st1 st2">BATTERY QC</text>
	<text transform="matrix(1 0 0 1 3437.4365 6013.9062)" class="st1 st2">BATTERY TERMS</text>
	<text transform="matrix(1 0 0 1 3814.0847 6038.6255)" class="st1 st2">ENERGIZATION</text>
	<text transform="matrix(1 0 0 1 3843.5867 5996.8853)" class="st1 st2">ENCLOSURE</text>
</g>
<rect id="E5_-_81A8_-_Battery_QC" x="3046.2" y="6355.6" class="st0" width="369.8" height="262.3"/>
<rect id="E5_-_81A8_-_Battery_Terms" x="3416" y="6355.6" class="st0" width="368.4" height="262.3"/>
<rect id="E5_-_81A8_-_Enclosure_Energization" x="3784.4" y="6355.6" class="st0" width="367.9" height="262.3"/>
<g>
	<text transform="matrix(1 0 0 1 3102.8938 6499.9058)" class="st1 st2">BATTERY QC</text>
	<text transform="matrix(1 0 0 1 3437.4365 6499.9062)" class="st1 st2">BATTERY TERMS</text>
	<text transform="matrix(1 0 0 1 3814.0847 6524.6255)" class="st1 st2">ENERGIZATION</text>
	<text transform="matrix(1 0 0 1 3843.5867 6482.8853)" class="st1 st2">ENCLOSURE</text>
</g>
<rect id="E5_-_81A9_-_Battery_QC" x="3046.2" y="7342.4" class="st0" width="369.8" height="262.3"/>
<rect id="E5_-_81A9_-_Battery_Terms" x="3416" y="7342.4" class="st0" width="368.4" height="262.3"/>
<rect id="E5_-_81A9_-_Enclosure_Energization" x="3784.4" y="7342.4" class="st0" width="367.9" height="262.3"/>
<g>
	<text transform="matrix(1 0 0 1 3102.8938 7486.7056)" class="st1 st2">BATTERY QC</text>
	<text transform="matrix(1 0 0 1 3437.4365 7486.7061)" class="st1 st2">BATTERY TERMS</text>
	<text transform="matrix(1 0 0 1 3814.0847 7511.4253)" class="st1 st2">ENERGIZATION</text>
	<text transform="matrix(1 0 0 1 3843.5867 7469.6851)" class="st1 st2">ENCLOSURE</text>
</g>
<rect id="E5_-_81B2_-_Battery_QC" x="41.3" y="1508.3" class="st0" width="369.8" height="262.3"/>
<rect id="E5_-_81B2_-_Battery_Terms" x="411.1" y="1508.3" class="st0" width="368.4" height="262.3"/>
<rect id="E5_-_81B2_-_Enclosure_Energization" x="779.5" y="1508.3" class="st0" width="367.9" height="262.3"/>
<g>
	<text transform="matrix(1 0 0 1 98.0215 1652.6062)" class="st1 st2">BATTERY QC</text>
	<text transform="matrix(1 0 0 1 432.5642 1652.6064)" class="st1 st2">BATTERY TERMS</text>
	<text transform="matrix(1 0 0 1 809.2124 1677.3257)" class="st1 st2">ENERGIZATION</text>
	<text transform="matrix(1 0 0 1 838.7144 1635.5854)" class="st1 st2">ENCLOSURE</text>
</g>
<rect id="E5_-_81B3_-_Battery_QC" x="41.3" y="2495.3" class="st0" width="369.8" height="262.3"/>
<rect id="E5_-_81B3_-_Battery_Terms" x="411.1" y="2495.3" class="st0" width="368.4" height="262.3"/>
<rect id="E5_-_81B3_-_Enclosure_Energization" x="779.5" y="2495.3" class="st0" width="367.9" height="262.3"/>
<g>
	<text transform="matrix(1 0 0 1 98.0215 2639.6062)" class="st1 st2">BATTERY QC</text>
	<text transform="matrix(1 0 0 1 432.5642 2639.6064)" class="st1 st2">BATTERY TERMS</text>
	<text transform="matrix(1 0 0 1 809.2124 2664.3257)" class="st1 st2">ENERGIZATION</text>
	<text transform="matrix(1 0 0 1 838.7144 2622.5854)" class="st1 st2">ENCLOSURE</text>
</g>
<rect id="E5_-_81B4_-_Battery_QC" x="41.3" y="2981.3" class="st0" width="369.8" height="262.3"/>
<rect id="E5_-_81B4_-_Battery_Terms" x="411.1" y="2981.3" class="st0" width="368.4" height="262.3"/>
<rect id="E5_-_81B4_-_Enclosure_Energization" x="779.5" y="2981.3" class="st0" width="367.9" height="262.3"/>
<g>
	<text transform="matrix(1 0 0 1 98.0215 3125.6062)" class="st1 st2">BATTERY QC</text>
	<text transform="matrix(1 0 0 1 432.5642 3125.6064)" class="st1 st2">BATTERY TERMS</text>
	<text transform="matrix(1 0 0 1 809.2124 3150.3257)" class="st1 st2">ENERGIZATION</text>
	<text transform="matrix(1 0 0 1 838.7144 3108.5854)" class="st1 st2">ENCLOSURE</text>
</g>
<rect id="E5_-_81B5_-_Battery_QC" x="41.3" y="3967.1" class="st0" width="369.8" height="262.3"/>
<rect id="E5_-_81B5_-_Battery_Terms" x="411.1" y="3967.1" class="st0" width="368.4" height="262.3"/>
<rect id="E5_-_81B5_-_Enclosure_Energization" x="779.5" y="3967.1" class="st0" width="367.9" height="262.3"/>
<g>
	<text transform="matrix(1 0 0 1 98.0215 4111.4062)" class="st1 st2">BATTERY QC</text>
	<text transform="matrix(1 0 0 1 432.5642 4111.4062)" class="st1 st2">BATTERY TERMS</text>
	<text transform="matrix(1 0 0 1 809.2124 4136.1255)" class="st1 st2">ENERGIZATION</text>
	<text transform="matrix(1 0 0 1 838.7144 4094.3855)" class="st1 st2">ENCLOSURE</text>
</g>
<rect id="E5_-_81B6_-_Battery_QC" x="41.3" y="4881.7" class="st0" width="369.8" height="262.3"/>
<rect id="E5_-_81B6_-_Battery_Terms" x="411.1" y="4881.7" class="st0" width="368.4" height="262.3"/>
<rect id="E5_-_81B6_-_Enclosure_Energization" x="779.5" y="4881.7" class="st0" width="367.9" height="262.3"/>
<g>
	<text transform="matrix(1 0 0 1 98.0215 5026.0059)" class="st1 st2">BATTERY QC</text>
	<text transform="matrix(1 0 0 1 432.5642 5026.0063)" class="st1 st2">BATTERY TERMS</text>
	<text transform="matrix(1 0 0 1 809.2124 5050.7256)" class="st1 st2">ENERGIZATION</text>
	<text transform="matrix(1 0 0 1 838.7144 5008.9854)" class="st1 st2">ENCLOSURE</text>
</g>
<rect id="E5_-_81B7_-_Battery_QC" x="41.3" y="5869.6" class="st0" width="369.8" height="262.3"/>
<rect id="E5_-_81B7_-_Battery_Terms" x="411.1" y="5869.6" class="st0" width="368.4" height="262.3"/>
<rect id="E5_-_81B7_-_Enclosure_Energization" x="779.5" y="5869.6" class="st0" width="367.9" height="262.3"/>
<g>
	<text transform="matrix(1 0 0 1 98.0215 6013.9058)" class="st1 st2">BATTERY QC</text>
	<text transform="matrix(1 0 0 1 432.5642 6013.9062)" class="st1 st2">BATTERY TERMS</text>
	<text transform="matrix(1 0 0 1 809.2124 6038.6255)" class="st1 st2">ENERGIZATION</text>
	<text transform="matrix(1 0 0 1 838.7144 5996.8853)" class="st1 st2">ENCLOSURE</text>
</g>
<rect id="E5_-_81B8_-_Battery_QC" x="41.3" y="6355.6" class="st0" width="369.8" height="262.3"/>
<rect id="E5_-_81B8_-_Battery_Terms" x="411.1" y="6355.6" class="st0" width="368.4" height="262.3"/>
<rect id="E5_-_81B8_-_Enclosure_Energization" x="779.5" y="6355.6" class="st0" width="367.9" height="262.3"/>
<g>
	<text transform="matrix(1 0 0 1 98.0215 6499.9058)" class="st1 st2">BATTERY QC</text>
	<text transform="matrix(1 0 0 1 432.5642 6499.9062)" class="st1 st2">BATTERY TERMS</text>
	<text transform="matrix(1 0 0 1 809.2124 6524.6255)" class="st1 st2">ENERGIZATION</text>
	<text transform="matrix(1 0 0 1 838.7144 6482.8853)" class="st1 st2">ENCLOSURE</text>
</g>
<rect id="E5_-_81B9_-_Battery_QC" x="41.3" y="7342.4" class="st0" width="369.8" height="262.3"/>
<rect id="E5_-_81B9_-_Battery_Terms" x="411.1" y="7342.4" class="st0" width="368.4" height="262.3"/>
<rect id="E5_-_81B9_-_Enclosure_Energization" x="779.5" y="7342.4" class="st0" width="367.9" height="262.3"/>
<g>
	<text transform="matrix(1 0 0 1 98.0215 7486.7056)" class="st1 st2">BATTERY QC</text>
	<text transform="matrix(1 0 0 1 432.5642 7486.7061)" class="st1 st2">BATTERY TERMS</text>
	<text transform="matrix(1 0 0 1 809.2124 7511.4253)" class="st1 st2">ENERGIZATION</text>
	<text transform="matrix(1 0 0 1 838.7144 7469.6851)" class="st1 st2">ENCLOSURE</text>
</g>
<g>
	<text transform="matrix(1 0 0 1 2397.2856 232.4577)" class="st1 st3">81B1</text>
	<text transform="matrix(1 0 0 1 2390.0576 1220.5549)" class="st1 st3">81A1</text>
	<text transform="matrix(1 0 0 1 2390.0576 1706.5776)" class="st1 st3">81A2</text>
	<text transform="matrix(1 0 0 1 2390.0576 2693.5713)" class="st1 st3">81A3</text>
	<text transform="matrix(1 0 0 1 2390.0576 3179.594)" class="st1 st3">81A4</text>
	<text transform="matrix(1 0 0 1 2390.0576 4165.4165)" class="st1 st3">81A5</text>
	<text transform="matrix(1 0 0 1 2390.0576 5079.9619)" class="st1 st3">81A6</text>
	<text transform="matrix(1 0 0 1 2390.0576 6067.8896)" class="st1 st3">81A7</text>
	<text transform="matrix(1 0 0 1 2390.0576 6553.9126)" class="st1 st3">81A8</text>
	<text transform="matrix(1 0 0 1 1372.0233 1706.5776)" class="st1 st3">81B2</text>
	<text transform="matrix(1 0 0 1 1380.3621 2693.5713)" class="st1 st3">81B3</text>
	<text transform="matrix(1 0 0 1 1388.7007 3179.594)" class="st1 st3">81B4</text>
	<text transform="matrix(1 0 0 1 1388.7007 4165.4165)" class="st1 st3">81B5</text>
	<text transform="matrix(1 0 0 1 1376.4329 5079.9619)" class="st1 st3">81B6</text>
	<text transform="matrix(1 0 0 1 1384.771 6067.8896)" class="st1 st3">81B7</text>
	<text transform="matrix(1 0 0 1 1384.771 6553.9126)" class="st1 st3">81B8</text>
	<text transform="matrix(1 0 0 1 2390.0576 7540.6914)" class="st1 st3">81A9</text>
	<text transform="matrix(1 0 0 1 1393.1096 7540.6914)" class="st1 st3">81B9</text>
</g>
</svg>
