<?xml version="1.0" encoding="utf-8"?>
<!-- Generator: Adobe Illustrator 27.8.1, SVG Export Plug-In . SVG Version: 6.00 Build 0)  -->
<svg version="1.1" id="Layer_1" xmlns="http://www.w3.org/2000/svg" xmlns:xlink="http://www.w3.org/1999/xlink" x="0px" y="0px"
	 viewBox="0 0 4207.8 7630.9" style="enable-background:new 0 0 4207.8 7630.9;" xml:space="preserve">
<style type="text/css">
	.st0{font-family:'Calibri';}
	.st1{font-size:208.4957px;}
	.st2{fill:#FFFFFF;stroke:#000000;stroke-width:0.1358;stroke-miterlimit:1.3588;}
	.st3{font-size:35px;}
	.st4{enable-background:new    ;}
	.st5{font-size:30px;}
</style>
<g>
	<text transform="matrix(1 0 0 1 2397.2856 232.4577)" class="st0 st1">81B1</text>
	<text transform="matrix(1 0 0 1 2390.0576 1220.5549)" class="st0 st1">81A1</text>
	<text transform="matrix(1 0 0 1 2390.0576 1706.5776)" class="st0 st1">81A2</text>
	<text transform="matrix(1 0 0 1 2390.0576 2693.5713)" class="st0 st1">81A3</text>
	<text transform="matrix(1 0 0 1 2390.0576 3179.594)" class="st0 st1">81A4</text>
	<text transform="matrix(1 0 0 1 2390.0576 4165.4165)" class="st0 st1">81A5</text>
	<text transform="matrix(1 0 0 1 2390.0576 5079.9619)" class="st0 st1">81A6</text>
	<text transform="matrix(1 0 0 1 2390.0576 6067.8896)" class="st0 st1">81A7</text>
	<text transform="matrix(1 0 0 1 2390.0576 6553.9126)" class="st0 st1">81A8</text>
	<text transform="matrix(1 0 0 1 1372.0233 1706.5776)" class="st0 st1">81B2</text>
	<text transform="matrix(1 0 0 1 1380.3621 2693.5713)" class="st0 st1">81B3</text>
	<text transform="matrix(1 0 0 1 1388.7007 3179.594)" class="st0 st1">81B4</text>
	<text transform="matrix(1 0 0 1 1388.7007 4165.4165)" class="st0 st1">81B5</text>
	<text transform="matrix(1 0 0 1 1376.4329 5079.9619)" class="st0 st1">81B6</text>
	<text transform="matrix(1 0 0 1 1384.771 6067.8896)" class="st0 st1">81B7</text>
	<text transform="matrix(1 0 0 1 1384.771 6553.9126)" class="st0 st1">81B8</text>
	<text transform="matrix(1 0 0 1 2390.0576 7540.6914)" class="st0 st1">81A9</text>
	<text transform="matrix(1 0 0 1 1393.1096 7540.6914)" class="st0 st1">81B9</text>
</g>
<rect id="E5_-_81B1_-_DMC_Re-Wiring" x="3046.2" y="34.2" class="st2" width="276.5" height="262.3"/>
<rect id="E5_-_81B1_-_Butterfly_Valve_Ground_Work" x="3322.7" y="34.2" class="st2" width="276.5" height="262.3"/>
<rect id="E5_-_81B1_-_Initiating_Devices_Rework" x="3599.2" y="34.2" class="st2" width="276.5" height="262.3"/>
<rect id="E5_-_81B1_-_DMC_Wiring_Audible_x2F_Visual_Change" x="3875.7" y="34.2" class="st2" width="276.5" height="262.3"/>
<text transform="matrix(1 0 0 1 3345.2847 190.4511)" class="st0 st3">GROUND WORK</text>
<text transform="matrix(1 0 0 1 3610.3911 190.4514)" class="st0 st3">DEVICES REWORK</text>
<text transform="matrix(1 0 0 1 3149.374 144.0681)" class="st4"><tspan x="0" y="0" class="st0 st3">DMC</tspan><tspan x="-44.6" y="42" class="st0 st3">RE-WIRING</tspan></text>
<text transform="matrix(1 0 0 1 3337.4399 158.1735)" class="st0 st3">BUTTERFLY VALVE</text>
<text transform="matrix(1 0 0 1 3666.1938 158.5278)" class="st0 st3">INITIATING</text>
<text transform="matrix(1 0 0 1 3932.3679 143.7136)" class="st4"><tspan x="0" y="0" class="st0 st5">DMC WIRING</tspan><tspan x="-21" y="36" class="st0 st5">AUDIBLE/VISUAL</tspan><tspan x="29.1" y="72" class="st0 st5">CHANGE</tspan></text>
<rect id="E5_-_81A1_-_DMC_Re-Wiring" x="3046.2" y="1022.3" class="st2" width="276.5" height="262.3"/>
<rect id="E5_-_81A1_-_Butterfly_Valve_Ground_Work" x="3322.7" y="1022.3" class="st2" width="276.5" height="262.3"/>
<rect id="E5_-_81A1_-_Initiating_Devices_Rework" x="3599.2" y="1022.3" class="st2" width="276.5" height="262.3"/>
<rect id="E5_-_81A1_-_DMC_Wiring_Audible_x2F_Visual_Change" x="3875.7" y="1022.3" class="st2" width="276.5" height="262.3"/>
<text transform="matrix(1 0 0 1 3345.2847 1178.5508)" class="st0 st3">GROUND WORK</text>
<text transform="matrix(1 0 0 1 3610.3911 1178.551)" class="st0 st3">DEVICES REWORK</text>
<text transform="matrix(1 0 0 1 3149.374 1132.1677)" class="st4"><tspan x="0" y="0" class="st0 st3">DMC</tspan><tspan x="-44.6" y="42" class="st0 st3">RE-WIRING</tspan></text>
<text transform="matrix(1 0 0 1 3337.4399 1146.2732)" class="st0 st3">BUTTERFLY VALVE</text>
<text transform="matrix(1 0 0 1 3666.1938 1146.6274)" class="st0 st3">INITIATING</text>
<text transform="matrix(1 0 0 1 3932.3679 1131.8132)" class="st4"><tspan x="0" y="0" class="st0 st5">DMC WIRING</tspan><tspan x="-21" y="36" class="st0 st5">AUDIBLE/VISUAL</tspan><tspan x="29.1" y="72" class="st0 st5">CHANGE</tspan></text>
<rect id="E5_-_81A2_-_DMC_Re-Wiring" x="3046.2" y="1508.3" class="st2" width="276.5" height="262.3"/>
<rect id="E5_-_81A2_-_Butterfly_Valve_Ground_Work" x="3322.7" y="1508.3" class="st2" width="276.5" height="262.3"/>
<rect id="E5_-_81A2_-_Initiating_Devices_Rework" x="3599.2" y="1508.3" class="st2" width="276.5" height="262.3"/>
<rect id="E5_-_81A2_-_DMC_Wiring_Audible_x2F_Visual_Change" x="3875.7" y="1508.3" class="st2" width="276.5" height="262.3"/>
<text transform="matrix(1 0 0 1 3345.2847 1664.5508)" class="st0 st3">GROUND WORK</text>
<text transform="matrix(1 0 0 1 3610.3911 1664.551)" class="st0 st3">DEVICES REWORK</text>
<text transform="matrix(1 0 0 1 3149.374 1618.1677)" class="st4"><tspan x="0" y="0" class="st0 st3">DMC</tspan><tspan x="-44.6" y="42" class="st0 st3">RE-WIRING</tspan></text>
<text transform="matrix(1 0 0 1 3337.4399 1632.2732)" class="st0 st3">BUTTERFLY VALVE</text>
<text transform="matrix(1 0 0 1 3666.1938 1632.6274)" class="st0 st3">INITIATING</text>
<text transform="matrix(1 0 0 1 3932.3679 1617.8132)" class="st4"><tspan x="0" y="0" class="st0 st5">DMC WIRING</tspan><tspan x="-21" y="36" class="st0 st5">AUDIBLE/VISUAL</tspan><tspan x="29.1" y="72" class="st0 st5">CHANGE</tspan></text>
<rect id="E5_-_81A3_-_DMC_Re-Wiring" x="3046.2" y="2495.3" class="st2" width="276.5" height="262.3"/>
<rect id="E5_-_81A3_-_Butterfly_Valve_Ground_Work" x="3322.7" y="2495.3" class="st2" width="276.5" height="262.3"/>
<rect id="E5_-_81A3_-_Initiating_Devices_Rework" x="3599.2" y="2495.3" class="st2" width="276.5" height="262.3"/>
<rect id="E5_-_81A3_-_DMC_Wiring_Audible_x2F_Visual_Change" x="3875.7" y="2495.3" class="st2" width="276.5" height="262.3"/>
<text transform="matrix(1 0 0 1 3345.2847 2651.5508)" class="st0 st3">GROUND WORK</text>
<text transform="matrix(1 0 0 1 3610.3911 2651.551)" class="st0 st3">DEVICES REWORK</text>
<text transform="matrix(1 0 0 1 3149.374 2605.1677)" class="st4"><tspan x="0" y="0" class="st0 st3">DMC</tspan><tspan x="-44.6" y="42" class="st0 st3">RE-WIRING</tspan></text>
<text transform="matrix(1 0 0 1 3337.4399 2619.2732)" class="st0 st3">BUTTERFLY VALVE</text>
<text transform="matrix(1 0 0 1 3666.1938 2619.6274)" class="st0 st3">INITIATING</text>
<text transform="matrix(1 0 0 1 3932.3679 2604.8132)" class="st4"><tspan x="0" y="0" class="st0 st5">DMC WIRING</tspan><tspan x="-21" y="36" class="st0 st5">AUDIBLE/VISUAL</tspan><tspan x="29.1" y="72" class="st0 st5">CHANGE</tspan></text>
<rect id="E5_-_81A4_-_DMC_Re-Wiring" x="3046.2" y="2981.3" class="st2" width="276.5" height="262.3"/>
<rect id="E5_-_81A4_-_Butterfly_Valve_Ground_Work" x="3322.7" y="2981.3" class="st2" width="276.5" height="262.3"/>
<rect id="E5_-_81A4_-_Initiating_Devices_Rework" x="3599.2" y="2981.3" class="st2" width="276.5" height="262.3"/>
<rect id="E5_-_81A4_-_DMC_Wiring_Audible_x2F_Visual_Change" x="3875.7" y="2981.3" class="st2" width="276.5" height="262.3"/>
<text transform="matrix(1 0 0 1 3345.2847 3137.5508)" class="st0 st3">GROUND WORK</text>
<text transform="matrix(1 0 0 1 3610.3911 3137.551)" class="st0 st3">DEVICES REWORK</text>
<text transform="matrix(1 0 0 1 3149.374 3091.1677)" class="st4"><tspan x="0" y="0" class="st0 st3">DMC</tspan><tspan x="-44.6" y="42" class="st0 st3">RE-WIRING</tspan></text>
<text transform="matrix(1 0 0 1 3337.4399 3105.2732)" class="st0 st3">BUTTERFLY VALVE</text>
<text transform="matrix(1 0 0 1 3666.1938 3105.6274)" class="st0 st3">INITIATING</text>
<text transform="matrix(1 0 0 1 3932.3679 3090.8132)" class="st4"><tspan x="0" y="0" class="st0 st5">DMC WIRING</tspan><tspan x="-21" y="36" class="st0 st5">AUDIBLE/VISUAL</tspan><tspan x="29.1" y="72" class="st0 st5">CHANGE</tspan></text>
<rect id="E5_-_81A5_-_DMC_Re-Wiring" x="3046.2" y="3967.1" class="st2" width="276.5" height="262.3"/>
<rect id="E5_-_81A5_-_Butterfly_Valve_Ground_Work" x="3322.7" y="3967.1" class="st2" width="276.5" height="262.3"/>
<rect id="E5_-_81A5_-_Initiating_Devices_Rework" x="3599.2" y="3967.1" class="st2" width="276.5" height="262.3"/>
<rect id="E5_-_81A5_-_DMC_Wiring_Audible_x2F_Visual_Change" x="3875.7" y="3967.1" class="st2" width="276.5" height="262.3"/>
<text transform="matrix(1 0 0 1 3345.2847 4123.3506)" class="st0 st3">GROUND WORK</text>
<text transform="matrix(1 0 0 1 3610.3911 4123.3511)" class="st0 st3">DEVICES REWORK</text>
<text transform="matrix(1 0 0 1 3149.374 4076.9678)" class="st4"><tspan x="0" y="0" class="st0 st3">DMC</tspan><tspan x="-44.6" y="42" class="st0 st3">RE-WIRING</tspan></text>
<text transform="matrix(1 0 0 1 3337.4399 4091.0732)" class="st0 st3">BUTTERFLY VALVE</text>
<text transform="matrix(1 0 0 1 3666.1938 4091.4275)" class="st0 st3">INITIATING</text>
<text transform="matrix(1 0 0 1 3932.3679 4076.6133)" class="st4"><tspan x="0" y="0" class="st0 st5">DMC WIRING</tspan><tspan x="-21" y="36" class="st0 st5">AUDIBLE/VISUAL</tspan><tspan x="29.1" y="72" class="st0 st5">CHANGE</tspan></text>
<rect id="E5_-_81A6_-_DMC_Re-Wiring" x="3046.2" y="4881.7" class="st2" width="276.5" height="262.3"/>
<rect id="E5_-_81A6_-_Butterfly_Valve_Ground_Work" x="3322.7" y="4881.7" class="st2" width="276.5" height="262.3"/>
<rect id="E5_-_81A6_-_Initiating_Devices_Rework" x="3599.2" y="4881.7" class="st2" width="276.5" height="262.3"/>
<rect id="E5_-_81A6_-_DMC_Wiring_Audible_x2F_Visual_Change" x="3875.7" y="4881.7" class="st2" width="276.5" height="262.3"/>
<text transform="matrix(1 0 0 1 3345.2847 5037.9507)" class="st0 st3">GROUND WORK</text>
<text transform="matrix(1 0 0 1 3610.3911 5037.9512)" class="st0 st3">DEVICES REWORK</text>
<text transform="matrix(1 0 0 1 3149.374 4991.5679)" class="st4"><tspan x="0" y="0" class="st0 st3">DMC</tspan><tspan x="-44.6" y="42" class="st0 st3">RE-WIRING</tspan></text>
<text transform="matrix(1 0 0 1 3337.4399 5005.6733)" class="st0 st3">BUTTERFLY VALVE</text>
<text transform="matrix(1 0 0 1 3666.1938 5006.0273)" class="st0 st3">INITIATING</text>
<text transform="matrix(1 0 0 1 3932.3679 4991.2134)" class="st4"><tspan x="0" y="0" class="st0 st5">DMC WIRING</tspan><tspan x="-21" y="36" class="st0 st5">AUDIBLE/VISUAL</tspan><tspan x="29.1" y="72" class="st0 st5">CHANGE</tspan></text>
<rect id="E5_-_81A7_-_DMC_Re-Wiring" x="3046.2" y="5869.6" class="st2" width="276.5" height="262.3"/>
<rect id="E5_-_81A7_-_Butterfly_Valve_Ground_Work" x="3322.7" y="5869.6" class="st2" width="276.5" height="262.3"/>
<rect id="E5_-_81A7_-_Initiating_Devices_Rework" x="3599.2" y="5869.6" class="st2" width="276.5" height="262.3"/>
<rect id="E5_-_81A7_-_DMC_Wiring_Audible_x2F_Visual_Change" x="3875.7" y="5869.6" class="st2" width="276.5" height="262.3"/>
<text transform="matrix(1 0 0 1 3345.2847 6025.8506)" class="st0 st3">GROUND WORK</text>
<text transform="matrix(1 0 0 1 3610.3911 6025.8511)" class="st0 st3">DEVICES REWORK</text>
<text transform="matrix(1 0 0 1 3149.374 5979.4678)" class="st4"><tspan x="0" y="0" class="st0 st3">DMC</tspan><tspan x="-44.6" y="42" class="st0 st3">RE-WIRING</tspan></text>
<text transform="matrix(1 0 0 1 3337.4399 5993.5732)" class="st0 st3">BUTTERFLY VALVE</text>
<text transform="matrix(1 0 0 1 3666.1938 5993.9272)" class="st0 st3">INITIATING</text>
<text transform="matrix(1 0 0 1 3932.3679 5979.1133)" class="st4"><tspan x="0" y="0" class="st0 st5">DMC WIRING</tspan><tspan x="-21" y="36" class="st0 st5">AUDIBLE/VISUAL</tspan><tspan x="29.1" y="72" class="st0 st5">CHANGE</tspan></text>
<rect id="E5_-_81A8_-_DMC_Re-Wiring" x="3046.2" y="6355.6" class="st2" width="276.5" height="262.3"/>
<rect id="E5_-_81A8_-_Butterfly_Valve_Ground_Work" x="3322.7" y="6355.6" class="st2" width="276.5" height="262.3"/>
<rect id="E5_-_81A8_-_Initiating_Devices_Rework" x="3599.2" y="6355.6" class="st2" width="276.5" height="262.3"/>
<rect id="E5_-_81A8_-_DMC_Wiring_Audible_x2F_Visual_Change" x="3875.7" y="6355.6" class="st2" width="276.5" height="262.3"/>
<text transform="matrix(1 0 0 1 3345.2847 6511.8506)" class="st0 st3">GROUND WORK</text>
<text transform="matrix(1 0 0 1 3610.3911 6511.8511)" class="st0 st3">DEVICES REWORK</text>
<text transform="matrix(1 0 0 1 3149.374 6465.4678)" class="st4"><tspan x="0" y="0" class="st0 st3">DMC</tspan><tspan x="-44.6" y="42" class="st0 st3">RE-WIRING</tspan></text>
<text transform="matrix(1 0 0 1 3337.4399 6479.5732)" class="st0 st3">BUTTERFLY VALVE</text>
<text transform="matrix(1 0 0 1 3666.1938 6479.9272)" class="st0 st3">INITIATING</text>
<text transform="matrix(1 0 0 1 3932.3679 6465.1133)" class="st4"><tspan x="0" y="0" class="st0 st5">DMC WIRING</tspan><tspan x="-21" y="36" class="st0 st5">AUDIBLE/VISUAL</tspan><tspan x="29.1" y="72" class="st0 st5">CHANGE</tspan></text>
<rect id="E5_-_81A9_-_DMC_Re-Wiring" x="3046.2" y="7342.4" class="st2" width="276.5" height="262.3"/>
<rect id="E5_-_81A9_-_Butterfly_Valve_Ground_Work" x="3322.7" y="7342.4" class="st2" width="276.5" height="262.3"/>
<rect id="E5_-_81A9_-_Initiating_Devices_Rework" x="3599.2" y="7342.4" class="st2" width="276.5" height="262.3"/>
<rect id="E5_-_81A9_-_DMC_Wiring_Audible_x2F_Visual_Change" x="3875.7" y="7342.4" class="st2" width="276.5" height="262.3"/>
<text transform="matrix(1 0 0 1 3345.2847 7498.6504)" class="st0 st3">GROUND WORK</text>
<text transform="matrix(1 0 0 1 3610.3911 7498.6509)" class="st0 st3">DEVICES REWORK</text>
<text transform="matrix(1 0 0 1 3149.374 7452.2676)" class="st4"><tspan x="0" y="0" class="st0 st3">DMC</tspan><tspan x="-44.6" y="42" class="st0 st3">RE-WIRING</tspan></text>
<text transform="matrix(1 0 0 1 3337.4399 7466.373)" class="st0 st3">BUTTERFLY VALVE</text>
<text transform="matrix(1 0 0 1 3666.1938 7466.7271)" class="st0 st3">INITIATING</text>
<text transform="matrix(1 0 0 1 3932.3679 7451.9131)" class="st4"><tspan x="0" y="0" class="st0 st5">DMC WIRING</tspan><tspan x="-21" y="36" class="st0 st5">AUDIBLE/VISUAL</tspan><tspan x="29.1" y="72" class="st0 st5">CHANGE</tspan></text>
<rect id="E5_-_81B2_-_DMC_Re-Wiring" x="41.3" y="1508.3" class="st2" width="276.5" height="262.3"/>
<rect id="E5_-_81B2_-_Butterfly_Valve_Ground_Work" x="317.8" y="1508.3" class="st2" width="276.5" height="262.3"/>
<rect id="E5_-_81B2_-_Initiating_Devices_Rework" x="594.3" y="1508.3" class="st2" width="276.5" height="262.3"/>
<rect id="E5_-_81B2_-_DMC_Wiring_Audible_x2F_Visual_Change" x="870.9" y="1508.3" class="st2" width="276.5" height="262.3"/>
<text transform="matrix(1 0 0 1 340.4122 1664.5508)" class="st0 st3">GROUND WORK</text>
<text transform="matrix(1 0 0 1 605.5188 1664.551)" class="st0 st3">DEVICES REWORK</text>
<text transform="matrix(1 0 0 1 144.5018 1618.1677)" class="st4"><tspan x="0" y="0" class="st0 st3">DMC</tspan><tspan x="-44.6" y="42" class="st0 st3">RE-WIRING</tspan></text>
<text transform="matrix(1 0 0 1 332.5677 1632.2732)" class="st0 st3">BUTTERFLY VALVE</text>
<text transform="matrix(1 0 0 1 661.3217 1632.6274)" class="st0 st3">INITIATING</text>
<text transform="matrix(1 0 0 1 927.4955 1617.8132)" class="st4"><tspan x="0" y="0" class="st0 st5">DMC WIRING</tspan><tspan x="-21" y="36" class="st0 st5">AUDIBLE/VISUAL</tspan><tspan x="29.1" y="72" class="st0 st5">CHANGE</tspan></text>
<rect id="E5_-_81B3_-_DMC_Re-Wiring" x="41.3" y="2495.3" class="st2" width="276.5" height="262.3"/>
<rect id="E5_-_81B3_-_Butterfly_Valve_Ground_Work" x="317.8" y="2495.3" class="st2" width="276.5" height="262.3"/>
<rect id="E5_-_81B3_-_Initiating_Devices_Rework" x="594.3" y="2495.3" class="st2" width="276.5" height="262.3"/>
<rect id="E5_-_81B3_-_DMC_Wiring_Audible_x2F_Visual_Change" x="870.9" y="2495.3" class="st2" width="276.5" height="262.3"/>
<text transform="matrix(1 0 0 1 340.4122 2651.5508)" class="st0 st3">GROUND WORK</text>
<text transform="matrix(1 0 0 1 605.5188 2651.551)" class="st0 st3">DEVICES REWORK</text>
<text transform="matrix(1 0 0 1 144.5018 2605.1677)" class="st4"><tspan x="0" y="0" class="st0 st3">DMC</tspan><tspan x="-44.6" y="42" class="st0 st3">RE-WIRING</tspan></text>
<text transform="matrix(1 0 0 1 332.5677 2619.2732)" class="st0 st3">BUTTERFLY VALVE</text>
<text transform="matrix(1 0 0 1 661.3217 2619.6274)" class="st0 st3">INITIATING</text>
<text transform="matrix(1 0 0 1 927.4955 2604.8132)" class="st4"><tspan x="0" y="0" class="st0 st5">DMC WIRING</tspan><tspan x="-21" y="36" class="st0 st5">AUDIBLE/VISUAL</tspan><tspan x="29.1" y="72" class="st0 st5">CHANGE</tspan></text>
<rect id="E5_-_81B4_-_DMC_Re-Wiring" x="41.3" y="2981.3" class="st2" width="276.5" height="262.3"/>
<rect id="E5_-_81B4_-_Butterfly_Valve_Ground_Work" x="317.8" y="2981.3" class="st2" width="276.5" height="262.3"/>
<rect id="E5_-_81B4_-_Initiating_Devices_Rework" x="594.3" y="2981.3" class="st2" width="276.5" height="262.3"/>
<rect id="E5_-_81B4_-_DMC_Wiring_Audible_x2F_Visual_Change" x="870.9" y="2981.3" class="st2" width="276.5" height="262.3"/>
<text transform="matrix(1 0 0 1 340.4122 3137.5508)" class="st0 st3">GROUND WORK</text>
<text transform="matrix(1 0 0 1 605.5188 3137.551)" class="st0 st3">DEVICES REWORK</text>
<text transform="matrix(1 0 0 1 144.5018 3091.1677)" class="st4"><tspan x="0" y="0" class="st0 st3">DMC</tspan><tspan x="-44.6" y="42" class="st0 st3">RE-WIRING</tspan></text>
<text transform="matrix(1 0 0 1 332.5677 3105.2732)" class="st0 st3">BUTTERFLY VALVE</text>
<text transform="matrix(1 0 0 1 661.3217 3105.6274)" class="st0 st3">INITIATING</text>
<text transform="matrix(1 0 0 1 927.4955 3090.8132)" class="st4"><tspan x="0" y="0" class="st0 st5">DMC WIRING</tspan><tspan x="-21" y="36" class="st0 st5">AUDIBLE/VISUAL</tspan><tspan x="29.1" y="72" class="st0 st5">CHANGE</tspan></text>
<rect id="E5_-_81B5_-_DMC_Re-Wiring" x="41.3" y="3967.1" class="st2" width="276.5" height="262.3"/>
<rect id="E5_-_81B5_-_Butterfly_Valve_Ground_Work" x="317.8" y="3967.1" class="st2" width="276.5" height="262.3"/>
<rect id="E5_-_81B5_-_Initiating_Devices_Rework" x="594.3" y="3967.1" class="st2" width="276.5" height="262.3"/>
<rect id="E5_-_81B5_-_DMC_Wiring_Audible_x2F_Visual_Change" x="870.9" y="3967.1" class="st2" width="276.5" height="262.3"/>
<text transform="matrix(1 0 0 1 340.4122 4123.3506)" class="st0 st3">GROUND WORK</text>
<text transform="matrix(1 0 0 1 605.5188 4123.3511)" class="st0 st3">DEVICES REWORK</text>
<text transform="matrix(1 0 0 1 144.5018 4076.9678)" class="st4"><tspan x="0" y="0" class="st0 st3">DMC</tspan><tspan x="-44.6" y="42" class="st0 st3">RE-WIRING</tspan></text>
<text transform="matrix(1 0 0 1 332.5677 4091.0732)" class="st0 st3">BUTTERFLY VALVE</text>
<text transform="matrix(1 0 0 1 661.3217 4091.4275)" class="st0 st3">INITIATING</text>
<text transform="matrix(1 0 0 1 927.4955 4076.6133)" class="st4"><tspan x="0" y="0" class="st0 st5">DMC WIRING</tspan><tspan x="-21" y="36" class="st0 st5">AUDIBLE/VISUAL</tspan><tspan x="29.1" y="72" class="st0 st5">CHANGE</tspan></text>
<rect id="E5_-_81B6_-_DMC_Re-Wiring" x="41.3" y="4881.7" class="st2" width="276.5" height="262.3"/>
<rect id="E5_-_81B6_-_Butterfly_Valve_Ground_Work" x="317.8" y="4881.7" class="st2" width="276.5" height="262.3"/>
<rect id="E5_-_81B6_-_Initiating_Devices_Rework" x="594.3" y="4881.7" class="st2" width="276.5" height="262.3"/>
<rect id="E5_-_81B6_-_DMC_Wiring_Audible_x2F_Visual_Change" x="870.9" y="4881.7" class="st2" width="276.5" height="262.3"/>
<text transform="matrix(1 0 0 1 340.4122 5037.9507)" class="st0 st3">GROUND WORK</text>
<text transform="matrix(1 0 0 1 605.5188 5037.9512)" class="st0 st3">DEVICES REWORK</text>
<text transform="matrix(1 0 0 1 144.5018 4991.5679)" class="st4"><tspan x="0" y="0" class="st0 st3">DMC</tspan><tspan x="-44.6" y="42" class="st0 st3">RE-WIRING</tspan></text>
<text transform="matrix(1 0 0 1 332.5677 5005.6733)" class="st0 st3">BUTTERFLY VALVE</text>
<text transform="matrix(1 0 0 1 661.3217 5006.0273)" class="st0 st3">INITIATING</text>
<text transform="matrix(1 0 0 1 927.4955 4991.2134)" class="st4"><tspan x="0" y="0" class="st0 st5">DMC WIRING</tspan><tspan x="-21" y="36" class="st0 st5">AUDIBLE/VISUAL</tspan><tspan x="29.1" y="72" class="st0 st5">CHANGE</tspan></text>
<rect id="E5_-_81B7_-_DMC_Re-Wiring" x="41.3" y="5869.6" class="st2" width="276.5" height="262.3"/>
<rect id="E5_-_81B7_-_Butterfly_Valve_Ground_Work" x="317.8" y="5869.6" class="st2" width="276.5" height="262.3"/>
<rect id="E5_-_81B7_-_Initiating_Devices_Rework" x="594.3" y="5869.6" class="st2" width="276.5" height="262.3"/>
<rect id="E5_-_81B7_-_DMC_Wiring_Audible_x2F_Visual_Change" x="870.9" y="5869.6" class="st2" width="276.5" height="262.3"/>
<text transform="matrix(1 0 0 1 340.4122 6025.8506)" class="st0 st3">GROUND WORK</text>
<text transform="matrix(1 0 0 1 605.5188 6025.8511)" class="st0 st3">DEVICES REWORK</text>
<text transform="matrix(1 0 0 1 144.5018 5979.4678)" class="st4"><tspan x="0" y="0" class="st0 st3">DMC</tspan><tspan x="-44.6" y="42" class="st0 st3">RE-WIRING</tspan></text>
<text transform="matrix(1 0 0 1 332.5677 5993.5732)" class="st0 st3">BUTTERFLY VALVE</text>
<text transform="matrix(1 0 0 1 661.3217 5993.9272)" class="st0 st3">INITIATING</text>
<text transform="matrix(1 0 0 1 927.4955 5979.1133)" class="st4"><tspan x="0" y="0" class="st0 st5">DMC WIRING</tspan><tspan x="-21" y="36" class="st0 st5">AUDIBLE/VISUAL</tspan><tspan x="29.1" y="72" class="st0 st5">CHANGE</tspan></text>
<rect id="E5_-_81B8_-_DMC_Re-Wiring" x="41.3" y="6355.6" class="st2" width="276.5" height="262.3"/>
<rect id="E5_-_81B8_-_Butterfly_Valve_Ground_Work" x="317.8" y="6355.6" class="st2" width="276.5" height="262.3"/>
<rect id="E5_-_81B8_-_Initiating_Devices_Rework" x="594.3" y="6355.6" class="st2" width="276.5" height="262.3"/>
<rect id="E5_-_81B8_-_DMC_Wiring_Audible_x2F_Visual_Change" x="870.9" y="6355.6" class="st2" width="276.5" height="262.3"/>
<text transform="matrix(1 0 0 1 340.4122 6511.8506)" class="st0 st3">GROUND WORK</text>
<text transform="matrix(1 0 0 1 605.5188 6511.8511)" class="st0 st3">DEVICES REWORK</text>
<text transform="matrix(1 0 0 1 144.5018 6465.4678)" class="st4"><tspan x="0" y="0" class="st0 st3">DMC</tspan><tspan x="-44.6" y="42" class="st0 st3">RE-WIRING</tspan></text>
<text transform="matrix(1 0 0 1 332.5677 6479.5732)" class="st0 st3">BUTTERFLY VALVE</text>
<text transform="matrix(1 0 0 1 661.3217 6479.9272)" class="st0 st3">INITIATING</text>
<text transform="matrix(1 0 0 1 927.4955 6465.1133)" class="st4"><tspan x="0" y="0" class="st0 st5">DMC WIRING</tspan><tspan x="-21" y="36" class="st0 st5">AUDIBLE/VISUAL</tspan><tspan x="29.1" y="72" class="st0 st5">CHANGE</tspan></text>
<rect id="E5_-_81B9_-_DMC_Re-Wiring" x="41.3" y="7342.4" class="st2" width="276.5" height="262.3"/>
<rect id="E5_-_81B9_-_Butterfly_Valve_Ground_Work" x="317.8" y="7342.4" class="st2" width="276.5" height="262.3"/>
<rect id="E5_-_81B9_-_Initiating_Devices_Rework" x="594.3" y="7342.4" class="st2" width="276.5" height="262.3"/>
<rect id="E5_-_81B9_-_DMC_Wiring_Audible_x2F_Visual_Change" x="870.9" y="7342.4" class="st2" width="276.5" height="262.3"/>
<text transform="matrix(1 0 0 1 340.4122 7498.6504)" class="st0 st3">GROUND WORK</text>
<text transform="matrix(1 0 0 1 605.5188 7498.6509)" class="st0 st3">DEVICES REWORK</text>
<text transform="matrix(1 0 0 1 144.5018 7452.2676)" class="st4"><tspan x="0" y="0" class="st0 st3">DMC</tspan><tspan x="-44.6" y="42" class="st0 st3">RE-WIRING</tspan></text>
<text transform="matrix(1 0 0 1 332.5677 7466.373)" class="st0 st3">BUTTERFLY VALVE</text>
<text transform="matrix(1 0 0 1 661.3217 7466.7271)" class="st0 st3">INITIATING</text>
<text transform="matrix(1 0 0 1 927.4955 7451.9131)" class="st4"><tspan x="0" y="0" class="st0 st5">DMC WIRING</tspan><tspan x="-21" y="36" class="st0 st5">AUDIBLE/VISUAL</tspan><tspan x="29.1" y="72" class="st0 st5">CHANGE</tspan></text>
</svg>
