<?xml version="1.0" encoding="utf-8"?>
<!-- Generator: Adobe Illustrator 27.8.1, SVG Export Plug-In . SVG Version: 6.00 Build 0)  -->
<svg version="1.1" id="Layer_1" xmlns="http://www.w3.org/2000/svg" xmlns:xlink="http://www.w3.org/1999/xlink" x="0px" y="0px"
	 viewBox="0 0 4207.8 7630.9" style="enable-background:new 0 0 4207.8 7630.9;" xml:space="preserve">
<style type="text/css">
	.st0{fill:#FFFFFF;stroke:#000000;stroke-width:0.1358;stroke-miterlimit:1.3588;}
	.st1{font-family:'Calibri';}
	.st2{font-size:208.4957px;}
</style>
<rect id="E5_-_81B1" x="3046.2" y="34.2" class="st0" width="1106.1" height="262.3"/>
<rect id="E5_-_81A1" x="3046.2" y="1022.3" class="st0" width="1106.1" height="262.3"/>
<rect id="E5_-_81A2" x="3046.2" y="1508.3" class="st0" width="1106.1" height="262.3"/>
<rect id="E5_-_81A3" x="3046.2" y="2495.3" class="st0" width="1106.1" height="262.3"/>
<rect id="E5_-_81A4" x="3046.2" y="2981.3" class="st0" width="1106.1" height="262.3"/>
<rect id="E5_-_81A5" x="3046.2" y="3967.1" class="st0" width="1106.1" height="262.3"/>
<rect id="E5_-_81A6" x="3046.2" y="4881.7" class="st0" width="1106.1" height="262.3"/>
<rect id="E5_-_81A7" x="3046.2" y="5869.6" class="st0" width="1106.1" height="262.3"/>
<rect id="E5_-_81A8" x="3046.2" y="6355.6" class="st0" width="1106.1" height="262.3"/>
<rect id="E5_-_81A9" x="3046.2" y="7342.4" class="st0" width="1106.1" height="262.3"/>
<rect id="E5_-_81B2" x="41.3" y="1508.3" class="st0" width="1106.1" height="262.3"/>
<rect id="E5_-_81B3" x="41.3" y="2495.3" class="st0" width="1106.1" height="262.3"/>
<rect id="E5_-_81B4" x="41.3" y="2981.3" class="st0" width="1106.1" height="262.3"/>
<rect id="E5_-_81B5" x="41.3" y="3967.1" class="st0" width="1106.1" height="262.3"/>
<rect id="E5_-_81B6" x="41.3" y="4881.7" class="st0" width="1106.1" height="262.3"/>
<rect id="E5_-_81B7" x="41.3" y="5869.6" class="st0" width="1106.1" height="262.3"/>
<rect id="E5_-_81B8" x="41.3" y="6355.6" class="st0" width="1106.1" height="262.3"/>
<rect id="E5_-_81B9" x="41.3" y="7342.4" class="st0" width="1106.1" height="262.3"/>
<g>
	<text transform="matrix(1 0 0 1 2397.2856 232.4577)" class="st1 st2">81B1</text>
	<text transform="matrix(1 0 0 1 2390.0576 1220.5549)" class="st1 st2">81A1</text>
	<text transform="matrix(1 0 0 1 2390.0576 1706.5776)" class="st1 st2">81A2</text>
	<text transform="matrix(1 0 0 1 2390.0576 2693.5713)" class="st1 st2">81A3</text>
	<text transform="matrix(1 0 0 1 2390.0576 3179.594)" class="st1 st2">81A4</text>
	<text transform="matrix(1 0 0 1 2390.0576 4165.4165)" class="st1 st2">81A5</text>
	<text transform="matrix(1 0 0 1 2390.0576 5079.9619)" class="st1 st2">81A6</text>
	<text transform="matrix(1 0 0 1 2390.0576 6067.8896)" class="st1 st2">81A7</text>
	<text transform="matrix(1 0 0 1 2390.0576 6553.9126)" class="st1 st2">81A8</text>
	<text transform="matrix(1 0 0 1 1372.0233 1706.5776)" class="st1 st2">81B2</text>
	<text transform="matrix(1 0 0 1 1380.3621 2693.5713)" class="st1 st2">81B3</text>
	<text transform="matrix(1 0 0 1 1388.7007 3179.594)" class="st1 st2">81B4</text>
	<text transform="matrix(1 0 0 1 1388.7007 4165.4165)" class="st1 st2">81B5</text>
	<text transform="matrix(1 0 0 1 1376.4329 5079.9619)" class="st1 st2">81B6</text>
	<text transform="matrix(1 0 0 1 1384.771 6067.8896)" class="st1 st2">81B7</text>
	<text transform="matrix(1 0 0 1 1384.771 6553.9126)" class="st1 st2">81B8</text>
	<text transform="matrix(1 0 0 1 2390.0576 7540.6914)" class="st1 st2">81A9</text>
	<text transform="matrix(1 0 0 1 1393.1096 7540.6914)" class="st1 st2">81B9</text>
</g>
</svg>
