<?xml version="1.0" encoding="utf-8"?>
<!-- Generator: Adobe Illustrator 27.8.1, SVG Export Plug-In . SVG Version: 6.00 Build 0)  -->
<svg version="1.1" id="Layer_1" xmlns="http://www.w3.org/2000/svg" xmlns:xlink="http://www.w3.org/1999/xlink" x="0px" y="0px"
	 viewBox="0 0 1716.3 1639" style="enable-background:new 0 0 1716.3 1639;" xml:space="preserve">
<style type="text/css">
	.st0{fill:#FFFFFF;stroke:#000000;stroke-width:0.1358;stroke-miterlimit:1.3588;}
	.st1{font-family:'Calibri';}
	.st2{font-size:29.2203px;}
	.st3{font-size:4.8609px;}
</style>
<rect id="SBESS-4_-_65B11.1" x="99.8" y="9.5" class="st0" width="124.5" height="22"/>
<rect id="SBESS-4_-_65B11.2" x="99.8" y="31.5" class="st0" width="124.5" height="22"/>
<rect id="SBESS-4_-_65B11.3" x="234.7" y="9.5" class="st0" width="124.5" height="22"/>
<rect id="SBESS-4_-_65B11.4" x="234.7" y="31.5" class="st0" width="124.5" height="22"/>
<rect id="SBESS-4_-_65B10.1" x="551.7" y="31.5" class="st0" width="124.5" height="22"/>
<rect id="SBESS-4_-_65B10.2" x="551.7" y="9.5" class="st0" width="124.5" height="22"/>
<rect id="SBESS-4_-_65B10.3" x="416.8" y="31.5" class="st0" width="124.5" height="22"/>
<rect id="SBESS-4_-_65B10.4" x="416.8" y="9.5" class="st0" width="124.5" height="22"/>
<rect id="SBESS-4_-_65B9.1" x="99.8" y="176" class="st0" width="124.5" height="22"/>
<rect id="SBESS-4_-_65B9.2" x="99.8" y="198" class="st0" width="124.5" height="22"/>
<rect id="SBESS-4_-_65B9.3" x="234.7" y="176" class="st0" width="124.5" height="22"/>
<rect id="SBESS-4_-_65B9.4" x="234.7" y="198" class="st0" width="124.5" height="22"/>
<rect id="SBESS-4_-_65B8.1" x="99.8" y="259" class="st0" width="124.5" height="22"/>
<rect id="SBESS-4_-_65B8.2" x="99.8" y="281" class="st0" width="124.5" height="22"/>
<rect id="SBESS-4_-_65B8.3" x="234.7" y="259" class="st0" width="124.5" height="22"/>
<rect id="SBESS-4_-_65B8.4" x="234.7" y="281" class="st0" width="124.5" height="22"/>
<rect id="SBESS-4_-_65B7.1" x="234.1" y="424.7" class="st0" width="124.5" height="22"/>
<rect id="SBESS-4_-_65B7.2" x="234.1" y="446.7" class="st0" width="124.5" height="22"/>
<rect id="SBESS-4_-_65B7.3" x="234.1" y="507.6" class="st0" width="124.5" height="22"/>
<rect id="SBESS-4_-_65B7.4" x="234.1" y="529.6" class="st0" width="124.5" height="22"/>
<rect id="SBESS-4_-_65B6.1" x="551.7" y="198" class="st0" width="124.5" height="22"/>
<rect id="SBESS-4_-_65B6.2" x="551.7" y="176" class="st0" width="124.5" height="22"/>
<rect id="SBESS-4_-_65B6.3" x="416.8" y="198" class="st0" width="124.5" height="22"/>
<rect id="SBESS-4_-_65B6.4" x="416.8" y="176" class="st0" width="124.5" height="22"/>
<rect id="SBESS-4_-_65B5.1" x="551.7" y="281" class="st0" width="124.5" height="22"/>
<rect id="SBESS-4_-_65B5.2" x="551.7" y="259" class="st0" width="124.5" height="22"/>
<rect id="SBESS-4_-_65B5.3" x="416.8" y="281" class="st0" width="124.5" height="22"/>
<rect id="SBESS-4_-_65B5.4" x="416.8" y="259" class="st0" width="124.5" height="22"/>
<rect id="SBESS-4_-_65B4.1" x="551.7" y="446.7" class="st0" width="124.5" height="22"/>
<rect id="SBESS-4_-_65B4.2" x="551.7" y="424.7" class="st0" width="124.5" height="22"/>
<rect id="SBESS-4_-_65B4.3" x="416.8" y="446.7" class="st0" width="124.5" height="22"/>
<rect id="SBESS-4_-_65B4.4" x="416.8" y="424.7" class="st0" width="124.5" height="22"/>
<rect id="SBESS-4_-_65B3.1" x="551.7" y="529.7" class="st0" width="124.5" height="22"/>
<rect id="SBESS-4_-_65B3.2" x="551.7" y="507.7" class="st0" width="124.5" height="22"/>
<rect id="SBESS-4_-_65B3.3" x="416.8" y="529.7" class="st0" width="124.5" height="22"/>
<rect id="SBESS-4_-_65B3.4" x="416.8" y="507.7" class="st0" width="124.5" height="22"/>
<rect id="SBESS-4_-_65B2.1" x="551.7" y="696.5" class="st0" width="124.5" height="22"/>
<rect id="SBESS-4_-_65B2.2" x="551.7" y="674.5" class="st0" width="124.5" height="22"/>
<rect id="SBESS-4_-_65B2.3" x="416.8" y="696.5" class="st0" width="124.5" height="22"/>
<rect id="SBESS-4_-_65B2.4" x="416.8" y="674.5" class="st0" width="124.5" height="22"/>
<rect id="SBESS-4_-_65B1.1" x="551.7" y="779.5" class="st0" width="124.5" height="22"/>
<rect id="SBESS-4_-_65B1.2" x="551.7" y="757.5" class="st0" width="124.5" height="22"/>
<rect id="SBESS-4_-_65B1.3" x="416.8" y="779.5" class="st0" width="124.5" height="22"/>
<rect id="SBESS-4_-_65B1.4" x="416.8" y="757.5" class="st0" width="124.5" height="22"/>
<rect id="SBESS-4_-_65A10.1" x="1041" y="909.5" class="st0" width="124.5" height="22"/>
<rect id="SBESS-4_-_65A10.2" x="1041" y="931.4" class="st0" width="124.5" height="22"/>
<rect id="SBESS-4_-_65A10.3" x="1176" y="909.5" class="st0" width="124.5" height="22"/>
<rect id="SBESS-4_-_65A10.4" x="1176" y="931.4" class="st0" width="124.5" height="22"/>
<rect id="SBESS-4_-_65A9.1" x="1041" y="1076" class="st0" width="124.5" height="22"/>
<rect id="SBESS-4_-_65A9.2" x="1041" y="1098" class="st0" width="124.5" height="22"/>
<rect id="SBESS-4_-_65A9.3" x="1176" y="1076" class="st0" width="124.5" height="22"/>
<rect id="SBESS-4_-_65A9.4" x="1176" y="1098" class="st0" width="124.5" height="22"/>
<rect id="SBESS-4_-_65A8.1" x="1041" y="1159" class="st0" width="124.5" height="22"/>
<rect id="SBESS-4_-_65A8.2" x="1041" y="1181" class="st0" width="124.5" height="22"/>
<rect id="SBESS-4_-_65A8.3" x="1176" y="1159" class="st0" width="124.5" height="22"/>
<rect id="SBESS-4_-_65A8.4" x="1176" y="1181" class="st0" width="124.5" height="22"/>
<rect id="SBESS-4_-_65A7.1" x="1041" y="1325.7" class="st0" width="124.5" height="22"/>
<rect id="SBESS-4_-_65A7.2" x="1041" y="1347.7" class="st0" width="124.5" height="22"/>
<rect id="SBESS-4_-_65A7.3" x="1176" y="1325.7" class="st0" width="124.5" height="22"/>
<rect id="SBESS-4_-_65A7.4" x="1176" y="1347.7" class="st0" width="124.5" height="22"/>
<rect id="SBESS-4_-_65A6.1" x="1492.5" y="931.4" class="st0" width="124.5" height="22"/>
<rect id="SBESS-4_-_65A6.2" x="1492.5" y="909.4" class="st0" width="124.5" height="22"/>
<rect id="SBESS-4_-_65A6.3" x="1357.6" y="931.4" class="st0" width="124.5" height="22"/>
<rect id="SBESS-4_-_65A6.4" x="1357.6" y="909.4" class="st0" width="124.5" height="22"/>
<rect id="SBESS-4_-_65A5.1" x="1492.5" y="1097.9" class="st0" width="124.5" height="22"/>
<rect id="SBESS-4_-_65A5.2" x="1492.5" y="1075.9" class="st0" width="124.5" height="22"/>
<rect id="SBESS-4_-_65A5.3" x="1357.6" y="1097.9" class="st0" width="124.5" height="22"/>
<rect id="SBESS-4_-_65A5.4" x="1357.6" y="1075.9" class="st0" width="124.5" height="22"/>
<rect id="SBESS-4_-_65A4.1" x="1492.5" y="1180.9" class="st0" width="124.5" height="22"/>
<rect id="SBESS-4_-_65A4.2" x="1492.5" y="1158.9" class="st0" width="124.5" height="22"/>
<rect id="SBESS-4_-_65A4.3" x="1357.6" y="1180.9" class="st0" width="124.5" height="22"/>
<rect id="SBESS-4_-_65A4.4" x="1357.6" y="1158.9" class="st0" width="124.5" height="22"/>
<rect id="SBESS-4_-_65A3.1" x="1492.5" y="1346.6" class="st0" width="124.5" height="22"/>
<rect id="SBESS-4_-_65A3.2" x="1492.5" y="1324.6" class="st0" width="124.5" height="22"/>
<rect id="SBESS-4_-_65A3.3" x="1357.6" y="1346.6" class="st0" width="124.5" height="22"/>
<rect id="SBESS-4_-_65A3.4" x="1357.6" y="1324.6" class="st0" width="124.5" height="22"/>
<rect id="SBESS-4_-_65A2.1" x="1492.5" y="1429.6" class="st0" width="124.5" height="22"/>
<rect id="SBESS-4_-_65A2.2" x="1492.5" y="1407.6" class="st0" width="124.5" height="22"/>
<rect id="SBESS-4_-_65A2.3" x="1357.6" y="1429.6" class="st0" width="124.5" height="22"/>
<rect id="SBESS-4_-_65A2.4" x="1357.6" y="1407.6" class="st0" width="124.5" height="22"/>
<rect id="SBESS-4_-_65A1.1" x="1492.5" y="1596.4" class="st0" width="124.5" height="22"/>
<rect id="SBESS-4_-_65A1.2" x="1492.5" y="1574.4" class="st0" width="124.5" height="22"/>
<rect id="SBESS-4_-_65A1.3" x="1357.6" y="1596.4" class="st0" width="124.5" height="22"/>
<rect id="SBESS-4_-_65A1.4" x="1357.6" y="1574.4" class="st0" width="124.5" height="22"/>
<g>
	<text transform="matrix(1 0 0 1 1643.2146 1448.0011)" class="st1 st2">65A2</text>
	<text transform="matrix(1 0 0 1 1643.2146 1613.735)" class="st1 st2">65A1</text>
	<text transform="matrix(1 0 0 1 1.1898 47.6984)" class="st1 st2">65B11</text>
	<text transform="matrix(1 0 0 1 1.1898 214.2533)" class="st1 st2">65B10</text>
	<text transform="matrix(1 0 0 1 15.9998 297.218)" class="st1 st2">65B9</text>
	<text transform="matrix(1 0 0 1 147.8094 465.4344)" class="st1 st2">65B8</text>
	<text transform="matrix(1 0 0 1 701.2985 47.6984)" class="st1 st2">65B7</text>
	<text transform="matrix(1 0 0 1 701.2985 214.2533)" class="st1 st2">65B6</text>
	<text transform="matrix(1 0 0 1 701.2985 297.481)" class="st1 st2">65B5</text>
	<text transform="matrix(1 0 0 1 701.2985 465.0446)" class="st1 st2">65B4</text>
	<text transform="matrix(1 0 0 1 701.2985 548.2722)" class="st1 st2">65B3</text>
	<text transform="matrix(1 0 0 1 701.2985 715.1807)" class="st1 st2">65B2</text>
	<text transform="matrix(1 0 0 1 701.2985 798.4083)" class="st1 st2">65B1</text>
	<text transform="matrix(1 0 0 1 939.3191 947.5798)" class="st1 st2">65A10</text>
	<text transform="matrix(1 0 0 1 954.1292 1114.1348)" class="st1 st2">65A9</text>
	<text transform="matrix(1 0 0 1 954.1292 1197.0995)" class="st1 st2">65A8</text>
	<text transform="matrix(1 0 0 1 954.1292 1364.8007)" class="st1 st2">65A7</text>
	<text transform="matrix(1 0 0 1 1643.2146 947.5798)" class="st1 st2">65A6</text>
	<text transform="matrix(1 0 0 1 1643.2146 1114.1348)" class="st1 st2">65A5</text>
	<text transform="matrix(1 0 0 1 1643.2146 1197.0995)" class="st1 st2">65A4</text>
	<text transform="matrix(1 0 0 1 1643.2146 1365.0364)" class="st1 st2">65A3</text>
</g>
<g>
	<text transform="matrix(1 0 0 1 531.4504 6.591)" class="st1 st3">.4</text>
	<text transform="matrix(1 0 0 1 531.4504 59.3537)" class="st1 st3">.3</text>
	<text transform="matrix(1 0 0 1 667.8533 6.591)" class="st1 st3">.2</text>
	<text transform="matrix(1 0 0 1 667.8533 59.3537)" class="st1 st3">.1</text>
</g>
<g>
	<text transform="matrix(1 0 0 1 105.4024 6.6107)" class="st1 st3">.1</text>
	<text transform="matrix(1 0 0 1 105.4024 59.3734)" class="st1 st3">.2</text>
	<text transform="matrix(1 0 0 1 241.8052 6.6107)" class="st1 st3">.3</text>
	<text transform="matrix(1 0 0 1 241.8052 59.3734)" class="st1 st3">.4</text>
</g>
<g>
	<text transform="matrix(1 0 0 1 531.4504 173.54)" class="st1 st3">.4</text>
	<text transform="matrix(1 0 0 1 531.4504 226.3027)" class="st1 st3">.3</text>
	<text transform="matrix(1 0 0 1 667.8533 173.54)" class="st1 st3">.2</text>
	<text transform="matrix(1 0 0 1 667.8533 226.3027)" class="st1 st3">.1</text>
</g>
<g>
	<text transform="matrix(1 0 0 1 105.4024 173.5597)" class="st1 st3">.1</text>
	<text transform="matrix(1 0 0 1 105.4024 226.3224)" class="st1 st3">.2</text>
	<text transform="matrix(1 0 0 1 241.8052 173.5597)" class="st1 st3">.3</text>
	<text transform="matrix(1 0 0 1 241.8052 226.3224)" class="st1 st3">.4</text>
</g>
<g>
	<text transform="matrix(1 0 0 1 531.4504 255.931)" class="st1 st3">.4</text>
	<text transform="matrix(1 0 0 1 531.4504 308.6937)" class="st1 st3">.3</text>
	<text transform="matrix(1 0 0 1 667.8533 255.931)" class="st1 st3">.2</text>
	<text transform="matrix(1 0 0 1 667.8533 308.6937)" class="st1 st3">.1</text>
</g>
<g>
	<text transform="matrix(1 0 0 1 105.4024 255.9506)" class="st1 st3">.1</text>
	<text transform="matrix(1 0 0 1 105.4024 308.7133)" class="st1 st3">.2</text>
	<text transform="matrix(1 0 0 1 241.8052 255.9506)" class="st1 st3">.3</text>
	<text transform="matrix(1 0 0 1 241.8052 308.7133)" class="st1 st3">.4</text>
</g>
<g>
	<text transform="matrix(1 0 0 1 531.4504 421.6313)" class="st1 st3">.4</text>
	<text transform="matrix(1 0 0 1 531.4504 474.394)" class="st1 st3">.3</text>
	<text transform="matrix(1 0 0 1 667.8533 421.6313)" class="st1 st3">.2</text>
	<text transform="matrix(1 0 0 1 667.8533 474.394)" class="st1 st3">.1</text>
</g>
<g>
	<text transform="matrix(1 0 0 1 239.888 421.6509)" class="st1 st3">.1</text>
	<text transform="matrix(1 0 0 1 239.888 474.4136)" class="st1 st3">.2</text>
</g>
<text transform="matrix(1 0 0 1 240.2478 504.2585)" class="st1 st3">.3</text>
<text transform="matrix(1 0 0 1 240.2478 557.0212)" class="st1 st3">.4</text>
<g>
	<text transform="matrix(1 0 0 1 531.4504 504.5676)" class="st1 st3">.4</text>
	<text transform="matrix(1 0 0 1 531.4504 557.3303)" class="st1 st3">.3</text>
	<text transform="matrix(1 0 0 1 667.8533 504.5676)" class="st1 st3">.2</text>
	<text transform="matrix(1 0 0 1 667.8533 557.3303)" class="st1 st3">.1</text>
</g>
<g>
	<text transform="matrix(1 0 0 1 531.4504 671.4832)" class="st1 st3">.4</text>
	<text transform="matrix(1 0 0 1 531.4504 724.2459)" class="st1 st3">.3</text>
	<text transform="matrix(1 0 0 1 667.8533 671.4832)" class="st1 st3">.2</text>
	<text transform="matrix(1 0 0 1 667.8533 724.2459)" class="st1 st3">.1</text>
</g>
<g>
	<text transform="matrix(1 0 0 1 531.4504 754.4195)" class="st1 st3">.4</text>
	<text transform="matrix(1 0 0 1 531.4504 807.1822)" class="st1 st3">.3</text>
	<text transform="matrix(1 0 0 1 667.8533 754.4195)" class="st1 st3">.2</text>
	<text transform="matrix(1 0 0 1 667.8533 807.1822)" class="st1 st3">.1</text>
</g>
<g>
	<text transform="matrix(1 0 0 1 1471.3939 905.9398)" class="st1 st3">.4</text>
	<text transform="matrix(1 0 0 1 1471.3939 958.7025)" class="st1 st3">.3</text>
	<text transform="matrix(1 0 0 1 1607.7968 905.9398)" class="st1 st3">.2</text>
	<text transform="matrix(1 0 0 1 1607.7968 958.7025)" class="st1 st3">.1</text>
</g>
<g>
	<text transform="matrix(1 0 0 1 1045.3459 905.9595)" class="st1 st3">.1</text>
	<text transform="matrix(1 0 0 1 1045.3459 958.7222)" class="st1 st3">.2</text>
	<text transform="matrix(1 0 0 1 1181.7488 905.9595)" class="st1 st3">.3</text>
	<text transform="matrix(1 0 0 1 1181.7488 958.7222)" class="st1 st3">.4</text>
</g>
<g>
	<text transform="matrix(1 0 0 1 1471.3939 1072.4397)" class="st1 st3">.4</text>
	<text transform="matrix(1 0 0 1 1471.3939 1125.2024)" class="st1 st3">.3</text>
	<text transform="matrix(1 0 0 1 1607.7968 1072.4397)" class="st1 st3">.2</text>
	<text transform="matrix(1 0 0 1 1607.7968 1125.2024)" class="st1 st3">.1</text>
</g>
<g>
	<text transform="matrix(1 0 0 1 1045.3459 1072.4594)" class="st1 st3">.1</text>
	<text transform="matrix(1 0 0 1 1045.3459 1125.222)" class="st1 st3">.2</text>
	<text transform="matrix(1 0 0 1 1181.7488 1072.4594)" class="st1 st3">.3</text>
	<text transform="matrix(1 0 0 1 1181.7488 1125.222)" class="st1 st3">.4</text>
</g>
<g>
	<text transform="matrix(1 0 0 1 1471.3939 1155.4396)" class="st1 st3">.4</text>
	<text transform="matrix(1 0 0 1 1471.3939 1208.2023)" class="st1 st3">.3</text>
	<text transform="matrix(1 0 0 1 1607.7968 1155.4396)" class="st1 st3">.2</text>
	<text transform="matrix(1 0 0 1 1607.7968 1208.2023)" class="st1 st3">.1</text>
</g>
<g>
	<text transform="matrix(1 0 0 1 1045.3459 1155.4594)" class="st1 st3">.1</text>
	<text transform="matrix(1 0 0 1 1045.3459 1208.222)" class="st1 st3">.2</text>
	<text transform="matrix(1 0 0 1 1181.7488 1155.4594)" class="st1 st3">.3</text>
	<text transform="matrix(1 0 0 1 1181.7488 1208.222)" class="st1 st3">.4</text>
</g>
<g>
	<text transform="matrix(1 0 0 1 1471.3939 1322.4242)" class="st1 st3">.4</text>
	<text transform="matrix(1 0 0 1 1471.3939 1375.1869)" class="st1 st3">.3</text>
	<text transform="matrix(1 0 0 1 1607.7968 1322.4242)" class="st1 st3">.2</text>
	<text transform="matrix(1 0 0 1 1607.7968 1375.1869)" class="st1 st3">.1</text>
</g>
<g>
	<text transform="matrix(1 0 0 1 1045.3459 1322.444)" class="st1 st3">.1</text>
	<text transform="matrix(1 0 0 1 1045.3459 1375.2067)" class="st1 st3">.2</text>
	<text transform="matrix(1 0 0 1 1181.7488 1322.444)" class="st1 st3">.3</text>
	<text transform="matrix(1 0 0 1 1181.7488 1375.2067)" class="st1 st3">.4</text>
</g>
<g>
	<text transform="matrix(1 0 0 1 1471.3939 1404.6864)" class="st1 st3">.4</text>
	<text transform="matrix(1 0 0 1 1471.3939 1457.4491)" class="st1 st3">.3</text>
	<text transform="matrix(1 0 0 1 1607.7968 1404.6864)" class="st1 st3">.2</text>
	<text transform="matrix(1 0 0 1 1607.7968 1457.4491)" class="st1 st3">.1</text>
</g>
<g>
	<text transform="matrix(1 0 0 1 1471.3939 1572.0952)" class="st1 st3">.4</text>
	<text transform="matrix(1 0 0 1 1471.3939 1624.8579)" class="st1 st3">.3</text>
	<text transform="matrix(1 0 0 1 1607.7968 1572.0952)" class="st1 st3">.2</text>
	<text transform="matrix(1 0 0 1 1607.7968 1624.8579)" class="st1 st3">.1</text>
</g>
</svg>
